<?xml version="1.0" encoding="UTF-8" standalone="no"?>
<svg
   width="199.00116"
   height="79"
   version="1.1"
   id="Layer_1"
   x="0px"
   y="0px"
   viewBox="0 0 199.00115 79"
   xml:space="preserve"
   sodipodi:docname="Lawrence_Berkeley_National_Laboratory_logo.svg"
   inkscape:version="1.3 (0e150ed6c4, 2023-07-21)"
   xmlns:inkscape="http://www.inkscape.org/namespaces/inkscape"
   xmlns:sodipodi="http://sodipodi.sourceforge.net/DTD/sodipodi-0.dtd"
   xmlns="http://www.w3.org/2000/svg"
   xmlns:svg="http://www.w3.org/2000/svg"><defs
   id="defs23" /><sodipodi:namedview
   id="namedview23"
   pagecolor="#505050"
   bordercolor="#eeeeee"
   borderopacity="1"
   inkscape:showpageshadow="0"
   inkscape:pageopacity="0"
   inkscape:pagecheckerboard="0"
   inkscape:deskcolor="#505050"
   inkscape:zoom="1.9338978"
   inkscape:cx="183.30855"
   inkscape:cy="39.298871"
   inkscape:window-width="1900"
   inkscape:window-height="1028"
   inkscape:window-x="0"
   inkscape:window-y="0"
   inkscape:window-maximized="1"
   inkscape:current-layer="Layer_1" />&#10;<style
   type="text/css"
   id="style1">&#10;	.st0{fill:#00313C;}&#10;	.st1{fill:#FFFFFF;}&#10;</style>&#10;<path
   class="st0"
   d="M 111.3,2.1584247e-6 H 0 V 79.000002 h 111.3 z"
   id="path1" />&#10;&#10;&#10;&#10;&#10;&#10;&#10;&#10;&#10;&#10;&#10;&#10;<path
   class="st1"
   d="m 96.6,79.000002 h -2.1 v -37.5 l -5.6,-7.6 -5.6,7.6 v 37.5 h -2.1 v -38.2 l 7.7,-10.5 7.7,10.5 v 38.2 z"
   id="path13" />&#10;<path
   class="st1"
   d="m 14.6,50.600002 h 3.8 v -1.4 h -7.2 v 5.2 h 3.5 v -3.8 z"
   id="path14" />&#10;<path
   class="st1"
   d="m 24.5,50.600002 h 3.8 v -1.4 H 21 v 5.2 h 3.5 z"
   id="path15" />&#10;<path
   class="st1"
   d="m 34.5,50.600002 h 3.8 v -1.4 H 31 v 5.2 h 3.5 z"
   id="path16" />&#10;<path
   class="st1"
   d="m 44.4,50.600002 h 3.8 v -1.4 H 41 v 5.2 h 3.5 v -3.8 z"
   id="path17" />&#10;<path
   class="st1"
   d="m 54.4,50.600002 h 3.8 v -1.4 H 51 v 5.2 h 3.5 v -3.8 z"
   id="path18" />&#10;<path
   class="st1"
   d="m 64.4,50.600002 h 3.8 v -1.4 H 61 v 5.2 h 3.5 v -3.8 z"
   id="path19" />&#10;<path
   class="st1"
   d="m 38.6,18.800002 -0.9,-0.5 -1,0.6 -7.9,4.3 v 2.9 l 8.8,-4.8 8.8,4.8 v -2.9 z"
   id="path20" />&#10;<path
   class="st1"
   d="m 69,41.000002 c -8.7,-8.4 -20.1,-13 -32.3,-13 -9.5,0 -18.7,2.9 -26.4,8.2 l -1.1,0.8 v 3.2 l 2.6,-1.8 c 7.4,-5.1 16,-7.8 25,-7.8 11.6,0 22.6,4.5 30.8,12.6 0.2,0.2 0.6,0.4 0.9,0.4 h 4.6 v 35.4 h 2.6 v -38 z"
   id="path21" />&#10;<path
   class="st1"
   d="m 88.2,45.500002 h -2.3 v 8.8 h 2.3 z"
   id="path22" />&#10;<path
   class="st1"
   d="m 92.2,45.500002 h -2.3 v 8.8 h 2.3 z"
   id="path23" />&#10;<g
   id="g1"
   transform="matrix(0.71910227,0,0,-0.71910227,-163.79457,512.58396)"><ellipse
     rx="53.299"
     ry="53.603001"
     transform="scale(1,-1)"
     cy="-657.96997"
     cx="449.57001"
     fill="#ffffff"
     id="ellipse1" /><path
     d="m 69.678,0.98633 c -18.342,0 -35.584,7.1426 -48.553,20.112 -12.969,12.97 -20.111,30.211 -20.111,48.552 -3e-4,18.34 7.1422,35.58 20.111,48.55 12.9688,12.97 30.213,20.11 48.553,20.11 18.341,0 35.582,-7.14 48.552,-20.11 12.97,-12.97 20.11,-30.21 20.11,-48.55 0,-18.341 -7.14,-35.582 -20.11,-48.552 -12.97,-12.969 -30.211,-20.112 -48.552,-20.112 z m 0,2.1094 c 36.762,0 66.552,29.797 66.552,66.554 0,36.76 -29.79,66.55 -66.552,66.55 -36.757,0 -66.555,-29.79 -66.555,-66.55 0,-36.757 29.798,-66.554 66.555,-66.554 z m -0.635,3.0273 -0.357,0.0157 -0.411,0.6816 C 67.97,6.56913 67.679,6.39423 67.4,6.29303 c -0.278,-0.1013 -0.57,-0.1466 -0.873,-0.1328 -0.632,0.0275 -1.143,0.2632 -1.529,0.707 -0.387,0.445 -0.566,1.0031 -0.537,1.6719 0.027,0.6412 0.253,1.1264 0.676,1.4589 0.301,0.234 0.854,0.434 1.662,0.598 0.734,0.147 1.228,0.277 1.48,0.392 0.254,0.114 0.44,0.262 0.563,0.44 0.121,0.178 0.188,0.389 0.199,0.633 0.019,0.428 -0.119,0.8 -0.41,1.113 -0.291,0.314 -0.678,0.481 -1.16,0.502 -0.597,0.025 -1.145,-0.186 -1.641,-0.635 -0.496,-0.45 -0.829,-1.077 -1.002,-1.885 l -0.351,0.016 0.128,2.947 0.352,-0.014 0.522,-0.736 c 0.572,0.484 1.232,0.71 1.978,0.678 0.694,-0.03 1.251,-0.28 1.67,-0.75 0.419,-0.47 0.613,-1.048 0.582,-1.733 -0.016,-0.385 -0.111,-0.716 -0.283,-0.996 -0.171,-0.278 -0.424,-0.506 -0.756,-0.6813 -0.333,-0.1737 -0.905,-0.3376 -1.719,-0.4863 -0.579,-0.105 -0.974,-0.2102 -1.185,-0.3164 -0.212,-0.105 -0.374,-0.2478 -0.487,-0.4278 -0.111,-0.1787 -0.173,-0.389 -0.183,-0.6328 -0.018,-0.3912 0.104,-0.7299 0.367,-1.0136 0.262,-0.2825 0.607,-0.4344 1.037,-0.4532 0.515,-0.0225 0.979,0.1556 1.393,0.5293 0.412,0.3738 0.737,0.9811 0.976,1.8223 l 0.322,-0.0137 z m 1.18,0.0625 -0.317,2.8672 0.358,0.0196 c 0.16,-0.8263 0.381,-1.4264 0.664,-1.7989 0.342,-0.4525 0.748,-0.6649 1.22,-0.6386 0.167,0.0087 0.285,0.0479 0.356,0.1191 0.071,0.0713 0.104,0.1708 0.098,0.3008 l -0.344,6.1663 c -0.005,0.095 -0.039,0.171 -0.102,0.226 -0.061,0.055 -0.146,0.079 -0.258,0.074 l -0.83,-0.046 -0.021,0.384 3.355,0.188 0.022,-0.385 -0.729,-0.043 c -0.155,-0.009 -0.265,-0.043 -0.33,-0.105 -0.065,-0.062 -0.095,-0.154 -0.088,-0.278 l 0.338,-6.0778 c 0.008,-0.1587 0.048,-0.2702 0.123,-0.334 0.074,-0.065 0.206,-0.0913 0.395,-0.0801 0.941,0.0525 1.474,0.9284 1.601,2.6309 l 0.338,0.0195 0.018,-2.8828 z m 9.297,0.6797 -3.446,5.9958 c -0.192,0.335 -0.379,0.551 -0.56,0.653 -0.182,0.102 -0.41,0.131 -0.688,0.088 l -0.06,0.38 2.589,0.413 0.061,-0.381 -0.242,-0.039 c -0.28,-0.044 -0.484,-0.137 -0.612,-0.28 -0.127,-0.141 -0.179,-0.296 -0.152,-0.463 0.023,-0.142 0.097,-0.328 0.223,-0.558 l 0.478,-0.862 2.827,0.45 0.335,1.691 c 0.013,0.068 0.016,0.132 0.006,0.19 -0.015,0.097 -0.069,0.162 -0.16,0.197 -0.134,0.047 -0.35,0.049 -0.646,0.002 l -0.225,-0.035 -0.062,0.381 2.849,0.455 0.063,-0.383 -0.223,-0.035 c -0.319,-0.052 -0.508,-0.224 -0.566,-0.518 l -1.465,-7.291 z m -23.881,0.7539 -0.321,0.0743 -0.964,6.8476 c -0.054,0.381 -0.148,0.653 -0.278,0.814 -0.131,0.162 -0.332,0.273 -0.605,0.334 l 0.084,0.379 2.558,-0.582 -0.086,-0.377 -0.238,0.055 c -0.277,0.063 -0.501,0.053 -0.672,-0.031 -0.171,-0.085 -0.275,-0.208 -0.312,-0.373 -0.033,-0.14 -0.034,-0.342 -0.002,-0.602 l 0.123,-0.978 2.789,-0.635 0.943,1.445 c 0.036,0.059 0.062,0.116 0.074,0.172 0.023,0.098 -0.003,0.179 -0.076,0.244 -0.105,0.095 -0.304,0.175 -0.597,0.242 l -0.223,0.051 0.086,0.377 2.814,-0.64 -0.086,-0.375 -0.22,0.048 c -0.315,0.072 -0.554,-0.018 -0.719,-0.269 z m 27.572,0.0352 -0.897,2.7407 0.346,0.093 c 0.326,-0.776 0.665,-1.3172 1.018,-1.6247 0.427,-0.3725 0.87,-0.4975 1.326,-0.375 0.161,0.0437 0.269,0.1064 0.324,0.1914 0.055,0.0837 0.065,0.1882 0.031,0.3144 l -1.599,5.9629 c -0.024,0.093 -0.072,0.16 -0.145,0.201 -0.071,0.041 -0.161,0.048 -0.267,0.02 l -0.805,-0.217 -0.1,0.375 3.246,0.869 0.1,-0.373 -0.703,-0.187 c -0.151,-0.042 -0.252,-0.101 -0.303,-0.174 -0.051,-0.074 -0.06,-0.171 -0.029,-0.289 l 1.576,-5.8812 c 0.041,-0.1525 0.105,-0.2513 0.19,-0.2988 0.086,-0.0488 0.22,-0.05 0.404,0 0.909,0.2437 1.253,1.212 1.029,2.904 l 0.324,0.088 0.61,-2.8182 z m -4.065,0.6367 0.709,3.551 -2.525,-0.403 z m -27.166,0.3555 -5.564,1.8905 0.777,2.777 0.338,-0.115 c -0.161,-0.826 -0.179,-1.465 -0.056,-1.916 0.148,-0.547 0.447,-0.898 0.894,-1.051 0.159,-0.052 0.283,-0.06 0.375,-0.021 0.093,0.04 0.159,0.122 0.201,0.246 l 1.987,5.846 c 0.031,0.091 0.028,0.174 -0.008,0.248 -0.038,0.075 -0.109,0.129 -0.215,0.164 l -0.787,0.267 0.125,0.366 3.183,-1.08 -0.125,-0.368 -0.691,0.237 c -0.147,0.05 -0.264,0.057 -0.348,0.023 -0.083,-0.032 -0.143,-0.107 -0.183,-0.224 l -1.959,-5.764 c -0.051,-0.15 -0.054,-0.2668 -0.01,-0.3556 0.045,-0.0875 0.156,-0.1614 0.336,-0.2226 0.891,-0.3026 1.714,0.3105 2.469,1.8422 l 0.32,-0.108 z m 3.526,0.5078 1.976,3.0317 -2.492,0.566 z m 34.566,0.4141 -0.14,0.3593 0.548,0.2173 c 0.137,0.053 0.226,0.124 0.266,0.21 0.04,0.087 0.034,0.191 -0.016,0.315 l -2.216,5.615 c -0.049,0.124 -0.122,0.206 -0.221,0.242 -0.099,0.038 -0.237,0.019 -0.416,-0.052 l -0.459,-0.18 -0.143,0.359 5.549,2.19 1.155,-2.594 -0.329,-0.131 c -0.772,1.453 -1.725,1.956 -2.855,1.51 l -1.039,-0.41 c -0.151,-0.06 -0.249,-0.131 -0.293,-0.211 -0.044,-0.08 -0.045,-0.171 -0.004,-0.274 l 1.111,-2.816 0.526,0.207 c 0.336,0.133 0.555,0.355 0.658,0.668 0.102,0.311 0.053,0.74 -0.147,1.289 l 0.317,0.125 1.295,-3.281 -0.315,-0.125 c -0.206,0.476 -0.45,0.795 -0.734,0.951 -0.284,0.157 -0.58,0.175 -0.889,0.053 l -0.576,-0.227 0.996,-2.523 c 0.049,-0.125 0.113,-0.208 0.192,-0.246 0.078,-0.039 0.17,-0.038 0.275,0.003 l 1.318,0.52 c 0.42,0.165 0.704,0.453 0.848,0.856 0.144,0.403 0.127,1.005 -0.049,1.806 l 0.305,0.121 0.816,-2.441 z m -46.666,2.4376 c -0.455,0.007 -0.89,0.109 -1.302,0.306 -0.507,0.243 -0.919,0.63 -1.241,1.163 -0.32,0.532 -0.485,1.134 -0.494,1.806 -0.009,0.673 0.147,1.345 0.471,2.02 0.327,0.685 0.766,1.241 1.312,1.67 0.548,0.428 1.123,0.685 1.727,0.767 0.604,0.083 1.166,-0.002 1.689,-0.252 0.537,-0.256 0.968,-0.652 1.299,-1.189 0.33,-0.538 0.502,-1.146 0.512,-1.828 0.01,-0.683 -0.149,-1.366 -0.477,-2.051 -0.327,-0.684 -0.759,-1.236 -1.293,-1.652 -0.533,-0.417 -1.114,-0.66 -1.742,-0.735 -0.156,-0.019 -0.309,-0.028 -0.461,-0.025 z m -0.504,0.467 c 0.191,-0.023 0.388,-0.014 0.588,0.027 0.4,0.082 0.79,0.316 1.17,0.703 0.381,0.386 0.769,0.993 1.162,1.817 0.362,0.755 0.57,1.406 0.623,1.951 0.053,0.545 -0.013,0.993 -0.195,1.343 -0.184,0.35 -0.464,0.615 -0.84,0.795 -0.539,0.259 -1.101,0.24 -1.691,-0.056 -0.59,-0.297 -1.18,-1.059 -1.768,-2.287 -0.542,-1.134 -0.757,-2.037 -0.64,-2.709 0.115,-0.673 0.459,-1.145 1.033,-1.42 0.181,-0.087 0.368,-0.142 0.558,-0.164 z m 57.798,1.808 -0.21,0.324 0.58,0.374 c 0.13,0.082 0.2,0.172 0.23,0.269 0.03,0.098 0.01,0.197 -0.05,0.295 l -2.498,3.863 c -0.251,0.389 -0.402,0.75 -0.449,1.082 -0.062,0.439 0.023,0.86 0.252,1.262 0.228,0.404 0.645,0.801 1.248,1.189 0.697,0.45 1.387,0.604 2.077,0.461 0.6,-0.125 1.13,-0.53 1.57,-1.216 l 2.03,-3.147 c 0.18,-0.276 0.38,-0.448 0.6,-0.512 0.22,-0.065 0.46,-0.014 0.72,0.153 l 0.16,0.107 0.21,-0.324 -2.29,-1.484 -0.22,0.324 c 0.24,0.149 0.39,0.274 0.46,0.373 0.08,0.1 0.13,0.208 0.14,0.324 0.02,0.116 0,0.252 -0.05,0.408 -0.06,0.156 -0.17,0.366 -0.33,0.625 l -1.9,2.938 c -0.33,0.505 -0.73,0.814 -1.22,0.927 -0.48,0.114 -1,-0.007 -1.55,-0.363 -0.403,-0.257 -0.672,-0.553 -0.81,-0.883 -0.137,-0.33 -0.161,-0.667 -0.07,-1.013 0.063,-0.234 0.215,-0.539 0.459,-0.918 l 2.331,-3.612 c 0.07,-0.106 0.15,-0.167 0.25,-0.179 0.09,-0.014 0.21,0.029 0.36,0.127 l 0.57,0.363 0.21,-0.324 z m -62.462,0.112 -2.492,1.615 0.211,0.324 0.168,-0.109 c 0.205,-0.133 0.375,-0.197 0.506,-0.192 0.131,0.005 0.23,0.057 0.295,0.158 0.086,0.133 0.11,0.316 0.076,0.551 l -0.621,4.053 -1.924,-2.969 c -0.07,-0.106 -0.092,-0.217 -0.068,-0.33 0.023,-0.114 0.098,-0.212 0.224,-0.293 l 0.592,-0.383 -0.209,-0.324 -2.777,1.797 0.211,0.324 0.451,-0.293 c 0.176,-0.112 0.318,-0.163 0.428,-0.156 0.11,0.009 0.197,0.064 0.263,0.164 l 3.305,5.104 c 0.061,0.095 0.08,0.193 0.053,0.295 -0.028,0.102 -0.109,0.198 -0.246,0.287 l -0.321,0.207 -0.017,-0.022 -0.168,0.141 -0.004,0.004 -0.026,0.015 c -0.239,0.189 -0.485,0.216 -0.736,0.073 l -6.463,-3.676 -0.252,0.209 2.264,6.535 c 0.126,0.365 0.167,0.648 0.125,0.852 -0.041,0.203 -0.17,0.396 -0.385,0.576 l 0.248,0.295 2.01,-1.684 -0.248,-0.297 -0.188,0.158 c -0.217,0.182 -0.42,0.275 -0.611,0.278 -0.191,0.003 -0.34,-0.059 -0.449,-0.188 -0.093,-0.111 -0.184,-0.289 -0.275,-0.535 l -0.338,-0.928 2.195,-1.836 1.496,0.856 c 0.059,0.035 0.109,0.074 0.147,0.119 0.063,0.076 0.078,0.161 0.044,0.252 -0.051,0.132 -0.191,0.296 -0.421,0.488 l -0.178,0.147 0.248,0.297 2.025,-1.696 2.729,-1.767 -0.209,-0.327 -0.592,0.385 c -0.121,0.078 -0.248,0.11 -0.381,0.098 -0.085,-0.01 -0.158,-0.065 -0.221,-0.162 l -1.019,-1.574 0.258,-1.692 3.353,1.508 c 0.069,0.033 0.12,0.077 0.156,0.131 0.039,0.061 0.034,0.136 -0.015,0.224 -0.05,0.089 -0.187,0.208 -0.414,0.354 l -0.313,0.203 0.209,0.324 2.741,-1.773 -0.209,-0.324 -0.223,0.142 c -0.164,0.106 -0.331,0.161 -0.5,0.166 -0.168,0.005 -0.364,-0.044 -0.59,-0.146 l -4.039,-1.822 0.406,-2.458 c 0.05,-0.293 0.141,-0.559 0.274,-0.792 0.132,-0.233 0.281,-0.403 0.449,-0.51 l 0.193,-0.125 z m 31.074,2.068 c -29.317,0 -53.083,23.766 -53.083,53.082 0,29.317 23.766,53.087 53.083,53.087 29.318,0 53.088,-23.77 53.088,-53.087 0,-29.316 -23.77,-53.082 -53.088,-53.082 z m 0,1.687 c 13.729,0 26.637,5.348 36.348,15.055 9.7,9.708 15.05,22.612 15.05,36.34 0,13.729 -5.35,26.636 -15.05,36.347 -9.711,9.7 -22.619,15.05 -36.348,15.05 -13.728,0 -26.634,-5.35 -36.341,-15.05 -9.708,-9.711 -15.055,-22.618 -15.055,-36.347 0,-13.728 5.347,-26.632 15.055,-36.34 9.707,-9.707 22.613,-15.055 36.341,-15.055 z m 38.408,0.739 -0.25,0.295 0.25,0.211 c 0.12,0.096 0.19,0.193 0.24,0.291 0.02,0.07 0.04,0.227 0.04,0.476 l 0.01,0.133 -3.34,3.934 c -0.21,0.248 -0.47,0.392 -0.76,0.433 -0.3,0.04 -0.59,-0.045 -0.86,-0.258 l -0.25,0.293 2.1,1.785 0.25,-0.294 c -0.31,-0.275 -0.48,-0.555 -0.5,-0.84 -0.02,-0.284 0.11,-0.585 0.38,-0.903 l 2.97,-3.505 -0.59,7.671 0.36,0.297 3.91,-4.617 c 0.15,-0.18 0.33,-0.316 0.53,-0.406 0.2,-0.09 0.37,-0.123 0.52,-0.098 0.15,0.025 0.32,0.122 0.52,0.289 l 0.25,-0.295 -1.94,-1.638 -0.25,0.295 c 0.26,0.226 0.39,0.469 0.4,0.728 0.01,0.281 -0.13,0.587 -0.41,0.92 l -2.8,3.307 0.54,-7.389 z m -40.07,1.16 c -0.363,0.01 -0.662,0.137 -0.896,0.385 -0.233,0.246 -0.346,0.538 -0.336,0.873 0.006,0.238 0.067,0.442 0.184,0.609 0.116,0.168 0.325,0.324 0.625,0.467 -0.349,0.137 -0.59,0.291 -0.721,0.461 -0.131,0.171 -0.194,0.377 -0.188,0.621 0.009,0.327 0.138,0.591 0.387,0.795 0.249,0.202 0.591,0.299 1.024,0.287 0.446,-0.011 0.795,-0.153 1.048,-0.42 0.253,-0.269 0.373,-0.612 0.362,-1.029 -0.009,-0.287 -0.082,-0.524 -0.219,-0.709 -0.136,-0.185 -0.38,-0.351 -0.732,-0.498 0.266,-0.155 0.448,-0.311 0.548,-0.463 0.099,-0.154 0.146,-0.318 0.141,-0.498 -0.006,-0.243 -0.123,-0.454 -0.35,-0.631 -0.226,-0.176 -0.517,-0.26 -0.877,-0.25 z m 3.538,0.01 c -0.277,-0.009 -0.52,0.045 -0.733,0.162 -0.211,0.116 -0.378,0.288 -0.502,0.515 -0.124,0.228 -0.192,0.493 -0.201,0.793 -0.013,0.414 0.109,0.739 0.361,0.973 0.194,0.181 0.42,0.276 0.68,0.285 0.274,0.009 0.541,-0.102 0.803,-0.328 l 0.049,-0.039 c -0.019,0.474 -0.07,0.844 -0.153,1.113 -0.084,0.27 -0.188,0.461 -0.314,0.571 -0.128,0.11 -0.256,0.163 -0.385,0.16 -0.079,-0.003 -0.143,-0.024 -0.193,-0.063 -0.035,-0.027 -0.05,-0.062 -0.049,-0.107 0.001,-0.038 0.016,-0.087 0.049,-0.149 0.055,-0.105 0.083,-0.191 0.086,-0.259 0.003,-0.125 -0.031,-0.231 -0.106,-0.319 -0.075,-0.086 -0.171,-0.131 -0.287,-0.135 -0.13,-0.005 -0.239,0.04 -0.33,0.135 -0.091,0.095 -0.14,0.219 -0.145,0.371 -0.006,0.198 0.083,0.381 0.268,0.547 0.185,0.166 0.423,0.254 0.713,0.264 0.456,0.014 0.847,-0.182 1.176,-0.588 0.368,-0.46 0.566,-1.072 0.589,-1.836 0.02,-0.646 -0.109,-1.166 -0.388,-1.559 -0.233,-0.325 -0.562,-0.494 -0.988,-0.507 z m 3.572,0.22 c -0.265,-0.023 -0.509,0.033 -0.733,0.174 -0.223,0.141 -0.419,0.38 -0.584,0.719 -0.166,0.339 -0.269,0.751 -0.314,1.238 -0.063,0.691 0.04,1.268 0.309,1.731 0.213,0.372 0.508,0.576 0.888,0.611 0.254,0.022 0.494,-0.035 0.719,-0.174 0.226,-0.139 0.424,-0.376 0.59,-0.713 0.166,-0.336 0.27,-0.742 0.312,-1.217 0.043,-0.471 0.014,-0.89 -0.09,-1.257 -0.105,-0.368 -0.252,-0.642 -0.439,-0.817 -0.189,-0.175 -0.408,-0.272 -0.658,-0.295 z m -10.287,0.039 -0.215,0.02 c -0.206,0.141 -0.41,0.252 -0.613,0.332 -0.205,0.079 -0.461,0.142 -0.766,0.189 l 0.023,0.278 0.619,-0.053 c 0.077,-0.007 0.135,0.005 0.176,0.037 0.042,0.031 0.066,0.08 0.073,0.145 l 0.242,2.795 c 0.008,0.115 -0.008,0.2 -0.049,0.253 -0.041,0.056 -0.116,0.086 -0.225,0.096 l -0.427,0.039 0.023,0.283 2.273,-0.195 -0.025,-0.287 -0.543,0.049 c -0.069,0.005 -0.123,-0.011 -0.166,-0.047 -0.042,-0.036 -0.066,-0.092 -0.072,-0.166 z m 3.154,0.006 c 0.21,-0.005 0.38,0.058 0.51,0.19 0.131,0.131 0.201,0.307 0.207,0.527 0.004,0.16 -0.02,0.295 -0.073,0.406 -0.053,0.112 -0.157,0.234 -0.312,0.364 -0.405,-0.144 -0.668,-0.275 -0.785,-0.395 -0.119,-0.119 -0.18,-0.265 -0.184,-0.437 -0.005,-0.183 0.051,-0.338 0.168,-0.461 0.118,-0.124 0.274,-0.187 0.469,-0.194 z m 3.549,0.02 c 0.139,0.004 0.256,0.07 0.349,0.199 0.127,0.17 0.184,0.436 0.172,0.799 -0.011,0.357 -0.078,0.622 -0.199,0.795 -0.122,0.172 -0.267,0.255 -0.434,0.25 -0.152,-0.005 -0.271,-0.081 -0.357,-0.229 -0.086,-0.147 -0.125,-0.394 -0.113,-0.742 0.011,-0.401 0.071,-0.681 0.177,-0.84 0.105,-0.16 0.24,-0.238 0.405,-0.232 z m 3.549,0.217 c 0.147,0.013 0.254,0.125 0.316,0.337 0.088,0.292 0.089,0.885 0.008,1.784 -0.039,0.421 -0.105,0.811 -0.201,1.166 -0.072,0.262 -0.148,0.431 -0.231,0.506 -0.082,0.075 -0.169,0.108 -0.262,0.099 -0.14,-0.012 -0.238,-0.111 -0.298,-0.299 -0.094,-0.301 -0.109,-0.802 -0.045,-1.504 0.076,-0.838 0.17,-1.4 0.281,-1.685 0.111,-0.286 0.255,-0.419 0.432,-0.404 z m -45.194,1.627 3.143,1.794 -1.961,1.639 z m 37.949,0.304 c 0.432,0.161 0.725,0.306 0.881,0.434 0.157,0.127 0.238,0.303 0.244,0.525 0.007,0.231 -0.065,0.423 -0.216,0.574 -0.153,0.152 -0.355,0.229 -0.608,0.237 -0.242,0.006 -0.437,-0.066 -0.586,-0.217 -0.148,-0.151 -0.229,-0.366 -0.236,-0.645 -0.006,-0.227 0.032,-0.414 0.117,-0.558 0.084,-0.144 0.219,-0.26 0.404,-0.35 z m 46.42,1.821 -0.27,0.269 0.39,0.406 c 0.17,0.175 0.26,0.326 0.27,0.446 0,0.078 -0.07,0.193 -0.23,0.345 l -4.14,4.016 c -0.17,0.16 -0.3,0.242 -0.39,0.242 -0.1,0.001 -0.22,-0.078 -0.38,-0.238 l -0.44,-0.453 -0.27,0.269 2.32,2.395 0.28,-0.268 -0.45,-0.461 c -0.14,-0.147 -0.21,-0.275 -0.21,-0.386 0,-0.083 0.09,-0.206 0.25,-0.366 l 4.14,-4.015 c 0.15,-0.152 0.28,-0.224 0.37,-0.223 0.1,0.001 0.24,0.091 0.41,0.273 l 0.4,0.413 0.28,-0.27 z m -88.318,0.777 c -0.299,0 -0.578,0.044 -0.838,0.131 -0.416,0.141 -0.813,0.412 -1.193,0.816 l -2.565,2.721 0.282,0.265 0.505,-0.539 c 0.088,-0.092 0.18,-0.143 0.276,-0.152 0.095,-0.009 0.18,0.025 0.258,0.098 l 4.464,4.207 c 0.09,0.085 0.132,0.171 0.129,0.26 -0.003,0.088 -0.064,0.195 -0.183,0.32 l -0.469,0.5 0.281,0.264 2.295,-2.434 c 0.393,-0.415 0.663,-0.787 0.813,-1.117 0.198,-0.44 0.29,-0.887 0.279,-1.334 -0.012,-0.449 -0.118,-0.872 -0.32,-1.274 -0.262,-0.523 -0.643,-1.021 -1.143,-1.492 -0.604,-0.57 -1.242,-0.94 -1.916,-1.111 -0.337,-0.086 -0.656,-0.129 -0.955,-0.129 z m -0.74,0.754 c 0.145,-0.018 0.293,-0.018 0.445,0.002 0.718,0.098 1.54,0.584 2.465,1.455 0.625,0.589 1.047,1.121 1.269,1.596 0.167,0.348 0.229,0.689 0.188,1.023 -0.066,0.506 -0.289,0.96 -0.666,1.361 l -0.424,0.45 c -0.134,0.142 -0.252,0.22 -0.353,0.236 -0.103,0.015 -0.199,-0.019 -0.289,-0.104 l -4.422,-4.166 c -0.095,-0.09 -0.141,-0.183 -0.141,-0.279 10e-4,-0.095 0.051,-0.197 0.152,-0.305 l 0.565,-0.597 c 0.372,-0.396 0.775,-0.619 1.211,-0.672 z m 58.066,0.826 c -0.104,0.004 -0.087,0.246 0.065,0.488 0.201,0.323 1.494,2.26 1.695,2.584 0.202,0.323 0.439,0.522 0.139,0.572 -0.443,0.074 -0.6,0.249 -0.219,0.639 0.3,0.306 0.847,0.969 0.969,1.17 0.121,0.203 0.24,0.315 -0.092,0.315 -0.074,0 -0.345,-0.198 -0.555,-0.354 -0.145,-0.109 -0.405,-0.162 -0.607,0.039 -0.202,0.203 -0.927,1.293 -1.008,1.535 -0.081,0.243 0.112,0.553 0.387,0.653 0.557,0.202 0.46,0.315 0.42,0.599 -0.04,0.283 -0.082,0.484 -0.122,0.727 -0.04,0.242 -0.048,0.55 -0.523,0.525 -0.362,-0.019 -0.85,-0.149 -0.768,0.887 0.04,0.491 0.187,1.205 0.334,1.525 0.107,0.229 0.234,0.364 0.741,0.272 0.443,-0.082 0.454,-0.215 0.824,0.142 0.211,0.204 0.468,0.677 0.629,0.918 0.162,0.243 0.015,0.333 -0.186,0.737 -0.202,0.403 -0.449,0.501 0.121,1.007 0.559,0.499 1.225,0.82 1.594,0.944 0.474,0.157 0.465,0.025 0.666,-0.297 0.203,-0.324 0.237,-0.748 0.791,-0.688 0.401,0.043 0.642,0.09 0.885,0.17 0.241,0.082 0.354,0.359 0.394,0.643 0.042,0.282 0.116,0.704 0.641,0.664 0.525,-0.04 1.569,-0.427 1.852,-0.588 0.282,-0.161 0.353,-0.19 0.283,-0.402 -0.065,-0.195 -0.031,-0.338 -0.031,-0.338 0,0 0.013,-0.187 0.425,0.224 0.474,0.475 4.086,4.11 4.086,4.11 0,0 0.632,0.347 0.242,-0.201 -0.37,-0.52 -1.736,-2.504 -1.736,-2.504 0,0 0.002,-0.242 0.244,-0.242 0.242,0 0.565,-0.08 0.201,-0.403 -0.363,-0.322 -1.334,-1.452 -1.414,-1.615 -0.081,-0.161 -0.07,-0.364 0.213,-0.727 0.283,-0.363 0.554,-0.848 0.715,-1.13 0.163,-0.283 0.072,-0.41 -0.277,-0.612 -0.223,-0.126 -0.75,-0.424 -0.75,-0.424 0,0 0.179,-0.782 0.179,-1.023 0,-0.243 0.043,-0.481 0.321,-0.551 0.4,-0.1 0.501,-0.049 0.75,-0.199 0.215,-0.129 0.181,-0.623 0.101,-1.066 -0.081,-0.444 -0.127,-0.658 -0.252,-0.983 -0.107,-0.279 -0.349,-0.751 -0.837,-0.553 -0.273,0.11 -0.648,0.203 -0.93,-0.16 -0.283,-0.363 -0.039,-0.768 0.162,-1.051 0.275,-0.383 0.12,-0.565 -0.242,-0.847 -0.364,-0.283 -0.941,-0.672 -1.184,-0.793 -0.242,-0.121 -0.551,-0.096 -0.834,0.267 -0.284,0.364 -0.405,0.366 -0.728,0.325 -0.323,-0.04 -0.581,-0.141 -0.879,-0.211 -0.425,-0.102 -0.389,-0.591 -0.451,-0.838 -0.065,-0.258 -0.065,-0.454 -0.756,-0.432 -0.567,0.019 -0.903,0.076 -1.344,0.188 -0.299,0.075 -0.688,0.283 -0.688,0.283 0,0 -3.269,-3.593 -3.511,-3.834 -0.061,-0.061 -0.11,-0.087 -0.145,-0.086 z m 33.622,0.242 -0.3,0.244 0.15,0.182 c 0.12,0.155 0.19,0.304 0.19,0.449 0.01,0.145 -0.05,0.324 -0.17,0.535 l -3.68,6.272 0.22,0.277 6.36,-2.271 c 0.37,-0.133 0.67,-0.186 0.9,-0.162 0.22,0.023 0.39,0.097 0.49,0.224 l 0.14,0.166 0.3,-0.242 -1.69,-2.074 -0.3,0.242 0.32,0.385 c 0.11,0.145 0.16,0.289 0.15,0.439 -0.02,0.149 -0.1,0.286 -0.25,0.406 -0.11,0.088 -0.21,0.147 -0.3,0.182 l -4.85,1.76 2.76,-4.694 0.07,-0.099 c 0.07,-0.133 0.13,-0.221 0.18,-0.266 0.08,-0.059 0.16,-0.075 0.25,-0.049 0.09,0.027 0.21,0.125 0.34,0.295 l 0.34,0.41 0.3,-0.244 z m -46.514,1.078 c -0.176,0.032 -0.44,0.526 -0.616,1.926 -0.132,1.054 -1.615,5.753 -1.615,7.02 0,1.265 0.842,2.766 1.615,3.386 0.774,0.62 0.914,0.128 1.266,-0.295 0.703,-0.843 0.654,-1.969 0.703,-3.164 0.071,-1.687 -0.844,-2.742 -1.265,-3.867 -0.423,-1.124 -0.352,-3.233 0,-4.146 0.175,-0.458 0.088,-0.891 -0.088,-0.86 z m -13.448,1.235 c -0.053,0.012 -0.096,0.044 -0.156,0.088 -0.121,0.086 -0.017,0.121 -0.293,0.156 -0.276,0.034 -0.328,0.035 -0.414,0.138 -0.087,0.104 -0.017,0.172 -0.174,0.311 -0.155,0.138 -0.382,0.206 -0.5,0.447 -0.08,0.164 -0.207,0.236 -0.31,0.416 -0.09,0.157 -0.086,0.328 -0.051,0.483 0.034,0.155 0.068,0.363 0.016,0.57 -0.052,0.208 -0.207,0.345 -0.346,0.432 -0.138,0.086 -0.172,0.257 -0.154,0.361 0.017,0.104 0.069,0.243 -0.207,0.449 -0.277,0.208 -0.243,0.363 -0.243,0.467 0,0.104 0.035,0.31 -0.207,0.397 -0.241,0.086 -9.306,0.07 -9.306,0.07 0,0 -0.981,-0.546 -1.178,-0.604 -0.294,-0.086 -0.454,-0.119 -1.209,0.258 -0.771,0.386 -3.002,1.468 -3.59,1.762 -0.421,0.211 -0.709,-0.057 -0.709,-0.207 0,0 -0.17,-0.451 -0.273,-0.588 -0.104,-0.139 -0.275,-0.259 -0.43,0.035 -0.156,0.294 -0.036,0.31 -0.313,0.397 -0.276,0.086 -0.294,0.191 -0.31,0.312 -0.018,0.121 0.018,0.292 0.07,0.412 0.051,0.121 -0.035,0.416 -0.156,0.52 -0.12,0.103 -0.38,0.275 -0.518,0.345 -0.137,0.069 -0.155,0.258 0,0.344 0.155,0.086 0.311,0.122 0.311,0.277 0,0.155 0.086,0.362 0.103,0.465 0.017,0.104 0.069,0.191 -0.103,0.485 -0.173,0.293 -0.156,0.345 -0.189,0.467 -0.035,0.121 -0.087,0.275 -0.122,0.396 -0.035,0.12 0.016,0.259 -0.07,0.432 -0.086,0.172 -0.207,0.415 0,0.484 0.208,0.069 1.31,0.154 1.69,0.154 0,0 2.23,-0.138 2.472,-0.138 0.241,0 20.271,-0.241 20.6,-0.241 0.327,0 1.033,-0.19 1.103,-0.449 0.069,-0.259 -0.052,-0.603 -0.138,-0.967 -0.087,-0.362 -0.277,-0.569 -0.397,-0.759 -0.121,-0.19 -0.207,-0.623 -0.224,-0.795 -0.018,-0.173 0.052,-0.293 -0.276,-0.485 -0.327,-0.188 -0.446,-0.445 -0.588,-0.621 -0.192,-0.241 -0.119,-0.5 -0.136,-0.621 -0.018,-0.121 -0.244,-0.327 -0.227,-0.674 0.018,-0.345 0.028,-0.595 0.209,-0.828 0.135,-0.172 0,-0.431 -0.035,-0.57 -0.034,-0.138 -0.137,-0.638 -0.069,-0.74 0.069,-0.105 0.173,-0.244 0.139,-0.399 -0.035,-0.156 -0.26,-0.275 -0.398,-0.293 -0.139,-0.017 -0.51,-0.122 -0.502,-0.345 0.015,-0.382 -0.136,-0.45 -0.344,-0.588 -0.207,-0.139 -0.156,-0.346 -0.225,-0.467 -0.07,-0.121 -0.297,-0.448 -0.345,-0.5 -0.155,-0.163 -0.242,-0.208 -0.381,-0.156 -0.138,0.052 -0.119,0.087 -0.24,0.087 -0.122,0 -0.297,-0.294 -0.432,-0.345 -0.106,-0.041 -0.171,-0.05 -0.225,-0.037 z m 18.539,1.287 c -0.108,-0.013 -0.235,0.166 -0.312,0.802 -0.156,1.3 -0.508,2.039 -0.508,3.211 0,0.78 -0.204,1.224 -0.766,2.397 -0.66,1.38 -2.446,4.13 -2.855,5.201 -0.407,1.07 -0.662,2.242 -0.561,2.803 0.103,0.561 0.408,1.428 1.682,0.459 1.275,-0.969 2.296,-2.854 2.652,-4.588 0.357,-1.733 0.509,-2.09 0.407,-4.588 -0.102,-2.497 10e-4,-2.448 0.205,-3.518 0.205,-1.071 0.254,-1.58 0.254,-1.835 0,-0.128 -0.089,-0.332 -0.198,-0.344 z m -11.33,0.16 c -0.108,0.006 -0.197,0.208 -0.146,0.846 0.102,1.275 0.511,3.214 0.613,3.672 0.101,0.458 0.357,2.549 0.459,3.109 0.101,0.561 0.763,4.486 1.631,6.066 0.866,1.582 0.713,1.428 1.426,2.09 0.715,0.664 1.012,0.781 1.326,-0.662 0.315,-1.442 -0.254,-2.957 -0.254,-2.957 -0.255,-1.071 -1.735,-4.23 -2.143,-4.74 -0.407,-0.51 -1.987,-2.602 -2.039,-3.213 -0.051,-0.613 -0.56,-3.569 -0.611,-3.875 -0.025,-0.153 -0.153,-0.342 -0.262,-0.336 z m -46.24,2.553 -1.613,2.615 0.328,0.203 0.277,-0.449 c 0.112,-0.18 0.212,-0.277 0.301,-0.289 0.088,-0.013 0.257,0.058 0.508,0.213 l 2,1.234 -1.738,2.812 -1.998,-1.232 c -0.243,-0.15 -0.379,-0.27 -0.411,-0.361 -0.031,-0.09 0.005,-0.22 0.11,-0.389 l 0.297,-0.482 -0.327,-0.203 -1.625,2.63 0.329,0.204 0.273,-0.442 c 0.106,-0.171 0.206,-0.263 0.301,-0.275 0.094,-0.013 0.261,0.056 0.504,0.205 l 4.681,2.888 c 0.202,0.125 0.321,0.21 0.36,0.252 0.054,0.068 0.083,0.141 0.09,0.217 0.005,0.076 -0.02,0.158 -0.075,0.246 l -0.31,0.504 0.328,0.203 1.623,-2.631 -0.328,-0.203 -0.297,0.485 c -0.105,0.168 -0.227,0.257 -0.367,0.267 -0.068,0.004 -0.214,-0.064 -0.442,-0.205 l -2.287,-1.412 1.737,-2.812 2.252,1.39 c 0.236,0.145 0.372,0.254 0.406,0.324 0.062,0.128 0.038,0.28 -0.07,0.458 l -0.278,0.449 0.328,0.203 1.614,-2.615 -0.329,-0.204 -0.261,0.426 c -0.119,0.192 -0.249,0.293 -0.393,0.303 -0.07,0.008 -0.216,-0.057 -0.441,-0.197 l -4.662,-2.879 c -0.21,-0.129 -0.335,-0.218 -0.375,-0.266 -0.06,-0.079 -0.092,-0.153 -0.094,-0.22 -0.003,-0.069 0.034,-0.164 0.107,-0.284 l 0.295,-0.478 z m 104.07,0.101 -0.33,0.205 0.32,0.5 c 0.08,0.125 0.1,0.233 0.09,0.326 -0.02,0.093 -0.09,0.174 -0.2,0.247 l -5.1,3.222 c -0.12,0.071 -0.22,0.092 -0.33,0.065 -0.1,-0.029 -0.2,-0.125 -0.3,-0.287 l -0.26,-0.416 -0.33,0.205 3.18,5.043 2.47,-1.413 -0.19,-0.298 c -1.48,0.715 -2.55,0.56 -3.19,-0.467 l -0.6,-0.945 c -0.09,-0.138 -0.13,-0.252 -0.12,-0.342 0.02,-0.091 0.07,-0.166 0.16,-0.225 l 2.56,-1.617 0.3,0.478 c 0.2,0.305 0.24,0.614 0.14,0.926 -0.1,0.311 -0.39,0.632 -0.88,0.957 l 0.18,0.285 2.99,-1.884 -0.19,-0.284 c -0.44,0.263 -0.83,0.373 -1.15,0.333 -0.32,-0.042 -0.57,-0.203 -0.75,-0.483 l -0.33,-0.523 2.3,-1.45 c 0.11,-0.072 0.21,-0.099 0.3,-0.086 0.08,0.015 0.16,0.072 0.22,0.168 l 0.75,1.198 c 0.24,0.382 0.3,0.779 0.18,1.189 -0.12,0.41 -0.49,0.889 -1.11,1.432 l 0.18,0.277 2.1,-1.49 z m -32.258,0.453 c 0.645,0.04 1.411,0.444 1.855,0.848 0.444,0.404 0.765,1.065 0.768,1.777 0.001,0.647 -0.189,0.475 -0.471,0.274 -0.283,-0.203 -2.153,-2.334 -2.356,-2.535 -0.201,-0.203 0.037,-0.374 0.204,-0.364 z m -46.598,0.162 c 0,0 0.223,0 0.551,0.139 0.186,0.078 2.66,1.491 3.263,1.846 0.533,0.311 0.345,0.414 0.104,0.414 h -8.047 c -0.363,0 -0.45,-0.246 -0.121,-0.447 0.262,-0.162 3.333,-1.66 3.609,-1.797 0.277,-0.139 0.451,-0.155 0.641,-0.155 z m 44.707,0.418 c 0.062,0.002 0.126,0.02 0.193,0.067 0.148,0.104 0.303,0.339 0.606,0.685 0.335,0.383 -0.065,0.367 -0.256,0.432 -0.129,0.044 -0.188,0.215 -0.066,0.457 0.121,0.241 1.741,1.934 2.185,2.379 0.444,0.444 0.369,0.627 0.035,0.811 -0.452,0.248 -1.145,0.22 -1.834,0.001 -1.466,-0.463 -1.918,-1.66 -2.021,-2.562 -0.117,-1.023 0.585,-1.962 0.828,-2.123 0,0 0.145,-0.15 0.33,-0.147 z m -30.238,0.012 c 0.431,0.018 0.429,0.035 0.533,0.121 0.104,0.086 0.847,0.968 1.002,1.123 0.155,0.155 0.295,0.328 0.277,0.485 -0.017,0.155 -0.07,0.24 -0.398,0.24 -0.328,0 -9.358,0.053 -9.565,0.053 -0.207,0 -0.622,-10e-4 -0.898,-0.121 -0.276,-0.122 -2.175,-1.278 -2.451,-1.432 -0.277,-0.156 -0.105,-0.434 0.189,-0.434 0,0 10.878,-0.051 11.311,-0.035 z m 18.726,2.338 c -0.104,0.007 -0.236,0.229 -0.388,0.879 -0.19,0.807 -0.817,3.516 -1.122,4.586 -0.306,1.071 -1.325,3.518 -2.498,5.252 -1.172,1.734 -1.632,3.518 -1.785,3.976 -0.152,0.459 10e-4,2.142 0.614,2.397 0.611,0.255 2.293,-1.122 2.751,-2.193 0.459,-1.07 0.918,-3.975 1.122,-5.403 0.203,-1.427 0.561,-3.57 0.816,-4.844 0.255,-1.275 0.764,-3.669 0.764,-3.925 0,-0.159 -0.1,-0.737 -0.274,-0.725 z m -35.943,0.047 h 3.904 c 0.38,0 0.465,0.224 0.465,0.449 0,0.224 0.037,0.483 0.311,0.483 0.242,0 1.059,0.017 1.457,0.017 0.355,0 0.357,-0.274 0.357,-0.5 0,-0.366 0.152,-0.437 0.463,-0.437 0.31,0 0.398,0.281 0.398,0.281 v 1.881 c 0,0.57 0.002,0.691 -0.465,0.691 h -7.251 c -0.208,0 -0.312,-0.12 -0.346,-0.275 -0.035,-0.156 -0.293,-0.605 -0.414,-0.76 -0.121,-0.155 -0.328,-0.346 -0.328,-0.484 0,-0.138 0.009,-0.155 0.379,-0.155 0.251,0 0.312,-0.105 0.38,-0.209 0.069,-0.103 0.034,-0.343 0.051,-0.586 0.018,-0.241 0.345,-0.396 0.639,-0.396 z m 17.941,0 c 0.414,0 0.276,0.31 0.276,0.517 0,0.207 0.087,0.242 0.173,0.379 0.087,0.138 0.05,0.311 0.016,0.467 -0.035,0.155 -0.103,0.122 -0.172,0.225 -0.07,0.104 -0.173,0.242 -0.207,0.363 -0.035,0.12 0.086,0.276 0.086,0.518 0,0.241 -0.414,0.224 -0.414,0.224 -0.206,0 -8.064,0.033 -8.496,0.033 -0.431,0 -0.57,-0.104 -0.57,-0.396 0,-0.174 -0.034,-1.45 -0.034,-1.848 0,-0.396 0.242,-0.449 0.45,-0.449 h 2.521 c 0.5,0 0.483,0.172 0.483,0.346 0,0.171 0.017,0.45 0.017,0.726 0,0.277 0.189,0.448 0.483,0.448 h 2.953 c 0.466,0 0.449,-0.242 0.449,-0.397 v -0.691 c 0,-0.38 0.285,-0.457 0.285,-0.457 0.225,0 1.246,-0.008 1.701,-0.008 z m 67.413,2.6 -0.35,0.166 0.31,0.64 c 0.06,0.139 0.09,0.257 0.06,0.352 -0.03,0.096 -0.1,0.172 -0.22,0.228 l -5.49,2.619 c -0.11,0.049 -0.2,0.053 -0.29,0.016 -0.09,-0.039 -0.17,-0.127 -0.24,-0.27 l -0.3,-0.64 -0.35,0.166 1.44,3.033 0.35,-0.166 -0.3,-0.625 c -0.07,-0.151 -0.09,-0.276 -0.07,-0.375 0.02,-0.079 0.09,-0.143 0.21,-0.197 l 2.7,-1.289 0.25,0.535 c 0.14,0.282 0.2,0.55 0.19,0.803 -0.01,0.253 -0.08,0.471 -0.21,0.648 -0.12,0.179 -0.38,0.389 -0.77,0.629 -0.68,0.415 -1.08,0.693 -1.22,0.834 -0.18,0.186 -0.3,0.385 -0.34,0.598 -0.04,0.211 0,0.425 0.1,0.64 0.32,0.684 1.03,0.8 2.11,0.354 l -0.15,-0.299 c -0.36,0.152 -0.63,0.223 -0.81,0.213 -0.18,-0.011 -0.29,-0.063 -0.33,-0.155 -0.05,-0.087 -0.03,-0.196 0.05,-0.328 0.1,-0.171 0.33,-0.399 0.7,-0.681 0.5,-0.395 0.83,-0.685 0.97,-0.867 0.13,-0.184 0.23,-0.384 0.27,-0.598 0.04,-0.214 0.02,-0.56 -0.06,-1.037 0.34,0.547 0.64,0.922 0.91,1.125 0.27,0.201 0.55,0.317 0.86,0.347 0.3,0.03 0.61,-0.026 0.91,-0.171 0.51,-0.243 0.84,-0.619 0.98,-1.129 0.14,-0.509 0.05,-1.093 -0.26,-1.746 z m -64.315,0.685 c -0.089,0.019 -0.091,0.198 0.139,0.656 0.458,0.918 1.478,1.785 2.548,3.67 1.072,1.886 1.786,4.792 2.039,6.016 0.205,0.98 1.267,3.277 2.448,3.873 1.181,0.597 2.108,-0.014 1.181,-3.014 -0.588,-1.906 -1.129,-3.152 -2.863,-5.09 -1.732,-1.937 -1.886,-1.327 -2.396,-2.142 -0.509,-0.816 -2.447,-3.314 -2.702,-3.67 -0.127,-0.179 -0.305,-0.318 -0.394,-0.299 z m -47.895,0.508 -2.449,5.342 2.551,1.341 0.15,-0.324 c -0.71,-0.451 -1.188,-0.877 -1.431,-1.277 -0.297,-0.483 -0.345,-0.939 -0.149,-1.369 0.07,-0.151 0.15,-0.246 0.242,-0.287 0.093,-0.04 0.198,-0.033 0.317,0.021 l 5.611,2.572 c 0.088,0.04 0.147,0.101 0.174,0.178 0.029,0.078 0.021,0.166 -0.025,0.268 l -0.346,0.756 0.35,0.16 1.4,-3.055 -0.352,-0.16 -0.3,0.662 c -0.067,0.143 -0.141,0.232 -0.223,0.27 -0.081,0.037 -0.178,0.031 -0.289,-0.02 l -5.535,-2.537 c -0.144,-0.066 -0.231,-0.144 -0.264,-0.236 -0.034,-0.093 -0.012,-0.226 0.068,-0.399 0.393,-0.856 1.404,-1.033 3.036,-0.529 l 0.14,-0.307 z m 112.65,1.082 c 0.05,0 0.1,0.014 0.15,0.043 0.09,0.059 0.21,0.26 0.38,0.607 0.25,0.528 0.38,0.899 0.39,1.116 0.01,0.216 -0.07,0.429 -0.23,0.64 -0.15,0.21 -0.41,0.404 -0.78,0.576 -0.52,0.25 -0.96,0.279 -1.3,0.084 -0.35,-0.195 -0.64,-0.551 -0.89,-1.07 l -0.37,-0.773 2.47,-1.18 c 0.07,-0.03 0.12,-0.043 0.18,-0.043 z m -22.16,0.267 c -0.03,0 -0.06,0.011 -0.09,0.034 -0.84,0.756 -0.48,1.371 -0.48,1.371 0,0 -0.24,0.162 -0.34,0.295 -0.28,0.367 0.02,0.775 -0.19,0.986 -0.35,0.344 -0.49,0.507 -1.46,1.283 -0.79,0.633 -0.72,1.053 -1.199,1.422 -0.474,0.369 -1.043,0.365 -1.412,0.524 -0.37,0.158 -0.592,0.476 -0.908,0.634 -0.317,0.158 -0.51,-0.192 -1.04,-0.015 -0.563,0.188 -0.383,0.437 -0.804,0.437 -0.686,0 -0.845,-0.263 -1.584,-0.209 -0.739,0.053 -1.422,0.631 -1.791,0.684 -0.37,0.052 -0.855,-0.093 -1.108,-0.317 -0.373,-0.33 -0.668,-0.169 -1.037,-0.064 0,0 -0.604,-0.127 -0.81,-0.039 -0.518,0.217 -0.263,0.526 -0.684,0.789 -0.422,0.264 -0.615,0.188 -0.898,0.211 -0.704,0.056 -0.866,0.359 -1.235,0.676 -0.368,0.316 -0.453,0.8 -0.769,0.959 -0.493,0.246 -1.477,0.949 -1.477,1.793 0,0.843 0.213,1.108 0.74,1.478 0.22,0.154 0.545,0.239 0.368,0.58 -0.145,0.278 -0.127,0.649 0.298,0.85 0.28,0.132 0.176,-0.114 0.229,2.101 0.052,2.215 0.213,4.116 0.213,4.116 0,0 -4.744,1.318 -4.59,7.076 0.105,3.955 3.586,5.895 4.799,6.053 0.896,0.117 4.918,0.247 6.433,-0.37 1.688,-0.685 3.72,-2.371 3.586,-6.642 -0.158,-5.063 -3.842,-5.821 -4.851,-6.225 -0.528,-0.21 -0.822,-0.802 -0.822,-1.33 0,-0.527 -0.022,-4.629 -0.022,-4.629 0,0 0.316,-0.207 0.316,-0.791 0,-0.421 -0.315,-0.526 -0.949,-0.633 -0.207,-0.033 -0.21,-0.211 -0.158,-0.58 0.053,-0.368 -0.104,-1.001 0.422,-1.16 0.527,-0.159 0.845,-0.473 1.162,-0.683 0.316,-0.212 0.263,-0.582 0.58,-0.741 0.316,-0.158 0.25,0.038 1,-0.05 0.923,-0.11 0.897,-0.475 1.213,-0.528 0.318,-0.052 0.553,-0.147 0.949,0 0.529,0.196 0.928,0.109 1.213,-0.369 0.158,-0.264 0.687,-1.056 1.16,-1.268 0.475,-0.211 0.911,0.061 1.385,-0.466 0.475,-0.528 0.655,-1.061 0.988,-1.061 0.644,-10e-4 1.744,-1.004 2.054,-1.531 0.32,-0.528 0.43,-1.264 0.79,-1.527 0.37,-0.264 0.49,-0.442 0.55,-0.969 0.03,-0.353 -0.29,-0.33 0.17,-0.928 0.55,-0.697 0.29,-1.226 0.09,-1.227 z m -73.81,0.186 c -0.043,0.024 -0.061,0.086 -0.033,0.195 0.157,0.633 2.372,3.743 2.531,4.112 0.158,0.37 0.845,1.054 1.002,1.054 0,0 0.634,0.369 0.527,0.58 -0.137,0.275 0.375,0.655 0.375,0.655 0,0 -1.315,-0.227 -1.587,0.242 -0.174,0.3 -0.182,1.58 -0.129,2.107 0.052,0.528 0.016,5.281 0.046,7.09 0.024,1.405 0,4.018 0,4.967 0,0.949 -0.006,2.517 0.047,2.887 0.053,0.368 1.126,1.447 2.075,1.718 0.565,0.162 1.039,0.543 3.445,0.057 1.705,-0.344 3.481,-0.843 4.746,-0.525 0.989,0.246 3.533,1.263 3.533,1.263 0,0 1.328,-0.998 1.793,-1.107 0.896,-0.211 1.16,-0.051 1.16,-0.051 0,0 0.854,0.713 1.424,2.426 0.37,1.106 0.264,1.58 0.317,1.844 0.053,0.263 0.422,0.686 0.738,0.213 0.316,-0.475 -0.105,-1.477 -0.317,-2.004 -0.211,-0.528 -0.263,-0.952 -0.474,-1.268 -0.21,-0.316 -0.579,-1.001 -0.473,-1.16 0.105,-0.158 0.683,-0.103 1.158,-0.051 0.474,0.053 1.529,0.211 2.584,0.211 1.055,0 2.69,-0.58 2.69,-0.58 0,0 0.686,0.052 0.738,-0.582 0.053,-0.633 -0.728,-16.721 -0.684,-17.033 0.053,-0.369 -0.054,-0.631 -0.371,-0.684 -0.316,-0.054 -0.474,-0.212 -0.685,-0.371 -0.211,-0.157 -0.263,-0.262 -0.738,-0.103 -0.474,0.157 -1.421,0.373 -2.159,0.267 -0.738,-0.105 -0.948,-0.089 -1.902,-0.32 -0.336,-0.083 -1.792,-0.211 -2.318,-0.264 -0.65,-0.065 -1.899,-0.055 -2.795,0.209 -0.898,0.264 -2.004,1.002 -2.004,1.002 0,0 -1.255,-0.688 -2.317,-0.851 -0.833,-0.129 -1.587,-0.098 -2.062,0.007 -0.475,0.105 -1.007,0.263 -1.371,0.264 0,0 -0.316,-0.473 -0.58,-0.631 -0.264,-0.159 -0.791,0.156 -0.791,0.156 0,0 -1.264,-1.317 -1.844,-1.634 -0.58,-0.317 -1.742,-1.634 -1.9,-1.741 -0.159,-0.105 -0.264,-0.21 -0.528,-0.052 -0.263,0.158 -0.263,-0.104 -0.263,-0.104 0,0 -1.635,-1.479 -1.899,-1.9 -0.198,-0.317 -0.575,-0.582 -0.705,-0.51 z m 47.932,1.963 c -0.09,0.035 -0.188,0.196 -0.264,0.578 -0.13,0.651 -0.765,3.057 -1.58,4.484 -0.714,1.248 -2.092,4.029 -4.742,6.832 -0.821,0.868 -1.121,2.497 -1.121,3.262 0,0.765 -0.103,1.58 1.121,1.07 1.224,-0.51 2.334,-0.656 3.467,-3.771 0.407,-1.121 0.867,-3.773 1.478,-5.557 0.611,-1.785 1.123,-3.313 1.326,-4.23 0.204,-0.918 0.51,-1.938 0.561,-2.244 0.032,-0.191 -0.096,-0.482 -0.246,-0.424 z m -16.033,2.949 c -0.144,-0.023 -0.264,0.073 -0.188,0.43 0.154,0.714 0.918,2.6 1.225,3.365 0.306,0.765 1.274,2.855 1.478,3.67 0.204,0.816 1.324,4.13 1.986,4.945 0.663,0.817 1.218,1.457 2.194,1.682 0.662,0.152 1.223,-0.865 0.713,-2.344 -0.51,-1.477 -1.682,-3.007 -2.6,-4.129 -0.917,-1.122 -1.224,-1.631 -2.346,-2.906 -0.618,-0.702 -2.038,-3.569 -2.14,-4.436 -0.013,-0.113 -0.179,-0.254 -0.322,-0.277 z m 65.841,0.1 c -0.3,-0.006 -0.6,0.046 -0.92,0.156 -0.6,0.21 -1,0.564 -1.2,1.064 -0.14,0.357 -0.17,0.944 -0.1,1.764 0.07,0.745 0.09,1.256 0.05,1.531 -0.04,0.275 -0.12,0.499 -0.26,0.666 -0.13,0.169 -0.32,0.291 -0.55,0.371 -0.4,0.142 -0.8,0.117 -1.18,-0.072 -0.39,-0.19 -0.66,-0.512 -0.82,-0.969 -0.19,-0.563 -0.14,-1.146 0.14,-1.75 0.29,-0.605 0.8,-1.105 1.52,-1.501 l -0.12,-0.333 -2.78,0.967 0.11,0.334 0.86,0.289 c -0.3,0.688 -0.33,1.383 -0.09,2.088 0.23,0.656 0.63,1.119 1.2,1.385 0.57,0.266 1.18,0.286 1.83,0.061 0.36,-0.127 0.66,-0.312 0.87,-0.557 0.22,-0.245 0.37,-0.551 0.44,-0.92 0.07,-0.369 0.06,-0.964 -0.03,-1.785 -0.06,-0.585 -0.08,-0.995 -0.04,-1.229 0.05,-0.233 0.13,-0.428 0.27,-0.588 0.14,-0.158 0.33,-0.277 0.56,-0.357 0.37,-0.129 0.73,-0.109 1.07,0.061 0.35,0.17 0.59,0.457 0.73,0.865 0.17,0.486 0.14,0.982 -0.1,1.484 -0.24,0.503 -0.73,0.989 -1.47,1.459 l 0.11,0.305 2.61,-0.938 -0.12,-0.338 -0.77,-0.197 c 0.16,-0.364 0.24,-0.694 0.26,-0.99 0.01,-0.296 -0.03,-0.587 -0.13,-0.873 -0.2,-0.598 -0.58,-1.019 -1.11,-1.262 -0.27,-0.122 -0.55,-0.185 -0.84,-0.191 z m -116.43,0.801 c -0.248,0.024 -0.484,0.104 -0.711,0.24 -0.4541,0.272 -0.7929,0.752 -1.0179,1.441 l -1.1621,3.553 0.3691,0.119 0.2187,-0.674 c 0.0475,-0.146 0.115,-0.245 0.2012,-0.297 0.085,-0.05 0.1875,-0.055 0.3125,-0.013 l 5.7855,1.888 c 0.108,0.037 0.18,0.1 0.22,0.19 0.039,0.09 0.035,0.208 -0.013,0.357 l -0.221,0.676 0.367,0.119 1.045,-3.195 -0.367,-0.119 -0.217,0.66 c -0.052,0.159 -0.121,0.264 -0.207,0.318 -0.067,0.043 -0.162,0.044 -0.283,0.004 l -2.844,-0.928 0.184,-0.564 c 0.097,-0.298 0.238,-0.535 0.418,-0.713 0.181,-0.177 0.377,-0.285 0.593,-0.326 0.215,-0.041 0.548,-0.015 0.998,0.08 0.774,0.164 1.26,0.242 1.458,0.234 0.262,-0.006 0.481,-0.073 0.656,-0.199 0.175,-0.126 0.298,-0.303 0.373,-0.529 0.235,-0.719 -0.192,-1.29 -1.283,-1.711 l -0.104,0.316 c 0.369,0.142 0.614,0.277 0.736,0.407 0.122,0.131 0.166,0.245 0.135,0.341 -0.03,0.093 -0.118,0.16 -0.265,0.201 -0.192,0.054 -0.516,0.059 -0.973,0.014 -0.64,-0.064 -1.075,-0.078 -1.303,-0.041 -0.227,0.038 -0.428,0.119 -0.605,0.246 -0.177,0.126 -0.401,0.39 -0.672,0.791 0.132,-0.629 0.17,-1.11 0.115,-1.441 -0.056,-0.333 -0.183,-0.615 -0.385,-0.846 -0.2,-0.232 -0.459,-0.402 -0.779,-0.506 -0.267,-0.087 -0.526,-0.118 -0.773,-0.093 z m 36.367,0.466 c 1.164,-0.046 2.801,0.296 3.539,0.453 0.739,0.159 2.617,0.571 3.461,0.36 0.844,-0.21 1.127,-0.359 1.179,0.221 0.053,0.58 0.53,13.026 0.53,14.556 0,1.529 -0.108,1.583 -0.793,1.951 -0.686,0.369 -2.584,0.473 -3.322,0.368 -0.739,-0.105 -2.69,-0.581 -2.69,-0.581 0,0 -0.106,-0.578 -0.211,-0.947 -0.106,-0.37 -0.894,-1.951 -1.158,-2.267 -0.264,-0.318 -0.687,-0.423 -0.899,-0.58 -0.21,-0.159 -0.157,-1.109 -0.316,-1.532 -0.157,-0.421 -0.738,-1.951 -1.002,-2.162 -0.264,-0.21 -0.368,0.16 -0.578,0.055 -0.211,-0.106 -0.106,-0.507 -0.316,-0.74 -0.212,-0.234 -0.54,-1.071 -1.262,-2.065 -0.483,-0.664 -1.325,-1.415 -1.957,-2.049 -0.633,-0.632 -0.739,-0.316 -0.949,-0.369 -0.212,-0.052 -0.211,-0.316 -0.211,-0.316 0,0 -0.053,-0.791 -0.317,-1.371 -0.263,-0.58 -1.308,-2.125 -1.308,-2.125 0,0 0.735,-0.297 1.896,-0.272 2.123,0.045 2.427,0.708 2.709,1.129 0.675,1.005 0.395,4.064 0.395,4.592 0,0.527 0.119,1.496 0.33,1.549 0.21,0.053 0.409,-0.758 0.355,-1.338 0,0 -0.105,-4.643 -0.105,-5.223 0,-0.58 1.681,-1.244 3,-1.297 z m -36.414,0.592 c 0.16,0.02 0.334,0.061 0.525,0.123 0.555,0.181 0.89,0.462 1.006,0.842 0.116,0.379 0.085,0.842 -0.094,1.387 l -0.267,0.814 -2.6039,-0.851 c -0.13,-0.043 -0.2074,-0.116 -0.2324,-0.221 -0.0263,-0.104 0.0206,-0.34 0.1406,-0.705 0.1813,-0.555 0.3438,-0.914 0.4867,-1.076 0.143,-0.163 0.344,-0.267 0.603,-0.311 0.13,-0.022 0.276,-0.022 0.436,-0.002 z m 95.114,0.106 c -0.46,-0.029 -0.88,0.219 -1.11,0.548 -0.37,0.527 -0.1,1.317 -0.1,1.317 0,0 0.21,0.475 -0.43,0.791 -0.63,0.316 -0.93,0.347 -0.93,0.347 -1,-0.114 -4.617,-0.081 -5.869,0.129 -0.643,0.108 -1.422,0.317 -0.894,1.161 0.526,0.843 1.106,3.53 1.053,5.429 -0.053,1.899 -0.276,4.398 -1.108,5.959 -0.681,1.283 0.143,1.201 0.512,1.201 h 9.136 c 0.53,0 1.11,0.014 0.53,-1.041 -0.58,-1.055 -1.63,-3.904 -1.58,-6.119 0.05,-2.215 0.68,-4.52 0.89,-5.152 0.27,-0.819 0.42,-1.043 -0.04,-1.195 -0.31,-0.107 -1.11,-0.246 -1.11,-0.246 l 0.45,-0.866 c 0,0 0.77,0.303 1.23,0.129 0.79,-0.294 0.95,-1.319 0.21,-2.004 -0.27,-0.257 -0.57,-0.371 -0.84,-0.388 z m -0.16,0.494 c 0.74,-0.105 1.25,0.863 0.84,1.275 -0.49,0.485 -1.31,-0.009 -1.42,-0.432 -0.1,-0.421 0.21,-0.79 0.58,-0.843 z m -72.349,0.002 c 0,0 0.433,0.012 0.803,0.117 0.369,0.105 0.83,1.675 1.357,2.414 0.528,0.737 0.739,0.947 0.739,0.947 l -0.211,0.053 c -0.212,0.052 -0.264,0.264 0.263,0.896 0.703,0.844 0.952,1.582 1.532,1.846 0.28,0.128 1.105,0.477 1.105,0.477 0,0 -0.369,-0.106 -0.633,0.052 -0.264,0.158 0.211,0.792 0.422,1.108 0.21,0.316 1.055,1.318 1.002,1.371 -0.052,0.052 0.422,1.053 0.791,1.316 0.369,0.264 1.16,1.161 1.213,1.371 0.054,0.212 -0.422,0.265 0.211,0.688 0.372,0.247 1.951,1.211 1.951,1.211 v 1.476 c 0,0.792 0.014,1.257 -1,1.108 -0.417,-0.061 -0.74,-0.051 -1.848,-0.156 -1.107,-0.107 -1.926,0.306 -3.597,0.847 -1.535,0.498 -2.258,0.634 -2.981,0.317 -1.265,-0.554 -1.492,-1.205 -1.492,-1.627 v -3.116 c 0,-0.738 0.047,-2.884 0.047,-4.289 0,-0.876 -0.066,-6.052 -0.066,-7.486 0,-0.791 0.076,-0.941 0.392,-0.941 z m 45.354,1.349 c -0.116,-0.033 -0.307,0.087 -0.504,0.469 -0.234,0.451 -2.348,5.062 -4.246,7.277 -1.899,2.215 -3.638,4.878 -3.875,5.854 -0.238,0.975 -0.501,1.951 0.896,1.476 1.398,-0.475 2.9,-2.505 3.506,-4.218 0.606,-1.714 1.688,-4.905 2.189,-5.828 0.5,-0.923 1.871,-4.138 2.083,-4.586 0.105,-0.225 0.066,-0.411 -0.049,-0.444 z m -19.803,0.465 c -0.056,-0.005 -0.08,0.02 -0.055,0.084 0.103,0.255 1.63,3.57 2.344,4.742 0.714,1.173 2.549,5.607 2.906,6.373 0.357,0.765 1.835,3.619 3.313,4.332 1.479,0.714 1.378,-0.307 1.275,-0.867 -0.139,-0.759 -0.407,-2.089 -1.121,-3.262 -0.584,-0.96 -2.499,-2.499 -3.314,-3.314 -0.817,-0.816 -3.059,-4.587 -3.721,-5.555 -0.664,-0.97 -0.664,-1.428 -0.867,-1.886 -0.153,-0.344 -0.593,-0.632 -0.76,-0.647 z m 71.278,0.781 -0.38,0.096 0.14,0.551 c 0.07,0.236 0.07,0.407 0.02,0.515 -0.04,0.069 -0.16,0.133 -0.37,0.188 l -5.59,1.441 c -0.22,0.058 -0.38,0.062 -0.46,0.016 -0.08,-0.045 -0.15,-0.176 -0.21,-0.391 l -0.15,-0.611 -0.38,0.098 0.83,3.228 0.38,-0.095 -0.16,-0.62 c -0.05,-0.2 -0.05,-0.347 0.01,-0.443 0.04,-0.071 0.17,-0.134 0.4,-0.191 l 5.58,-1.442 c 0.21,-0.054 0.36,-0.057 0.44,-0.01 0.08,0.049 0.15,0.196 0.21,0.442 l 0.15,0.555 0.37,-0.096 z m -119.89,2.661 c -0.35,0.008 -0.6864,0.059 -1.012,0.15 -0.6525,0.18 -1.1972,0.5 -1.6309,0.959 -0.4338,0.459 -0.708,0.987 -0.8242,1.586 -0.1075,0.55 -0.0429,1.114 0.1933,1.687 0.2363,0.574 0.6225,1.064 1.1563,1.473 0.535,0.408 1.1693,0.682 1.9045,0.826 0.745,0.144 1.451,0.125 2.121,-0.058 0.671,-0.184 1.22,-0.493 1.646,-0.928 0.427,-0.435 0.694,-0.94 0.805,-1.51 0.113,-0.582 0.052,-1.165 -0.182,-1.75 -0.235,-0.586 -0.621,-1.086 -1.164,-1.5 -0.541,-0.415 -1.186,-0.695 -1.931,-0.84 -0.373,-0.072 -0.733,-0.104 -1.082,-0.095 z m 77.8,0.964 c 1.054,0 0.682,0.367 0.364,0.397 -0.46,0.042 -0.461,0.042 -0.951,0 -0.315,-0.028 -0.628,0.396 0.164,0.396 0.791,0 1.562,-0.087 1.562,0.664 v 1.547 c 0,0 0.02,1.479 0.02,2.272 0,0.737 0.105,1.37 -0.159,1.527 -0.263,0.159 -0.579,0.264 0.317,0.633 0.897,0.37 3.85,1.253 3.902,5.961 0.053,4.692 -3.111,5.325 -4.429,5.219 -0.372,-0.03 -0.422,-0.051 -0.422,0.16 0,0.211 -0.212,0.367 -0.58,0.367 -0.369,0 -1.686,0.002 -2.055,-0.051 -0.37,-0.052 -3.791,-1.319 -4.01,-5.431 -0.236,-4.463 3.27,-6.172 3.85,-6.278 0.58,-0.105 0.74,-0.264 0.74,-0.633 0,-0.368 -0.213,-4.773 -0.213,-5.326 0,-0.896 -0.081,-1.371 0.527,-1.371 0.317,0 1.057,-0.053 1.373,-0.053 z m -28.834,0.022 c -0.098,0.026 -0.171,0.19 -0.119,0.558 0.132,0.923 1.214,3.931 2.348,6.383 1.134,2.453 2.418,5.133 2.873,6.326 0.185,0.485 1.108,1.557 1.609,1.821 0.502,0.264 1.714,0.922 2.11,1.027 0.395,0.106 1.159,0.079 0.658,-1.266 -0.235,-0.63 -1.08,-2.292 -2.293,-3.425 -1.212,-1.134 -2.242,-2.269 -2.639,-2.744 -0.395,-0.475 -2.411,-3.116 -3.214,-5.221 -0.766,-2.004 -0.949,-2.821 -1.055,-3.19 -0.053,-0.184 -0.179,-0.296 -0.278,-0.269 z m -49.253,0.166 c 0.358,0.025 0.762,0.08 1.21,0.168 0.822,0.16 1.468,0.383 1.938,0.664 0.47,0.282 0.79,0.602 0.963,0.957 0.172,0.356 0.219,0.738 0.139,1.148 -0.114,0.587 -0.465,1.027 -1.055,1.325 -0.589,0.297 -1.554,0.316 -2.893,0.056 -1.2322,-0.24 -2.0831,-0.607 -2.5544,-1.099 -0.47,-0.494 -0.6466,-1.054 -0.5254,-1.678 0.0775,-0.394 0.2692,-0.728 0.5742,-1 0.305,-0.273 0.7262,-0.447 1.2637,-0.522 0.2688,-0.037 0.581,-0.044 0.9399,-0.019 z m 121.23,0.213 -2.86,0.322 0.06,0.354 c 0.84,-0.027 1.47,0.057 1.9,0.25 0.52,0.233 0.81,0.582 0.89,1.048 0.03,0.165 0.02,0.29 -0.03,0.375 -0.06,0.085 -0.15,0.139 -0.28,0.161 l -6.09,1.025 c -0.09,0.016 -0.17,10e-4 -0.24,-0.047 -0.07,-0.049 -0.11,-0.128 -0.13,-0.236 l -0.14,-0.823 -0.38,0.067 0.56,3.312 0.38,-0.062 -0.12,-0.719 c -0.03,-0.155 -0.02,-0.27 0.03,-0.348 0.05,-0.077 0.13,-0.127 0.25,-0.148 l 6,-1.012 c 0.16,-0.026 0.28,-0.008 0.36,0.049 0.08,0.059 0.13,0.181 0.16,0.367 0.16,0.929 -0.58,1.642 -2.21,2.143 l 0.06,0.334 2.81,-0.619 z m -51.633,0.351 c -0.105,-0.006 -0.262,0.159 -0.367,0.463 -0.211,0.606 -1.319,3.77 -1.926,4.535 -0.305,0.384 -1.504,2.082 -2.506,2.61 -1.137,0.599 -2.82,2.189 -2.82,2.189 -0.58,0.633 -2.04,2.47 -2.267,4.586 -0.185,1.714 0.916,0.937 1.212,0.819 1.978,-0.792 3.928,-4.642 4.561,-5.696 0.632,-1.055 2.585,-4.588 2.902,-5.484 0.228,-0.646 1.053,-2.69 1.264,-3.455 0.106,-0.383 0.053,-0.56 -0.053,-0.567 z m -73.371,4.932 -0.17,2.527 0.3848,0.026 c 0.03,-0.342 0.1459,-0.59 0.3496,-0.75 0.2213,-0.175 0.5514,-0.248 0.9864,-0.219 l 4.32,0.289 -6.2615,3.953 -0.1152,1.725 0.3848,0.025 0.0234,-0.326 c 0.01,-0.15 0.0407,-0.269 0.0957,-0.359 0.0388,-0.067 0.156,-0.175 0.3535,-0.325 l 0.1055,-0.08 5.1468,0.346 c 0.325,0.021 0.592,0.141 0.802,0.357 0.21,0.218 0.311,0.499 0.301,0.844 l 0.387,0.026 0.184,-2.752 -0.385,-0.026 c -0.035,0.416 -0.161,0.716 -0.377,0.901 -0.218,0.185 -0.534,0.263 -0.949,0.234 l -4.5864,-0.305 6.5174,-4.09 0.031,-0.459 -6.0366,-0.404 c -0.2363,-0.016 -0.4521,-0.077 -0.6446,-0.185 -0.1925,-0.108 -0.3211,-0.229 -0.3886,-0.362 -0.0663,-0.132 -0.0918,-0.327 -0.0743,-0.586 z m 126.07,1.014 -0.39,0.021 c 0.01,0.306 -0.01,0.527 -0.06,0.66 -0.06,0.134 -0.16,0.253 -0.32,0.36 l -3.55,2.449 -2.34,0.129 c -0.12,0.007 -0.21,-0.027 -0.28,-0.102 -0.08,-0.074 -0.12,-0.199 -0.13,-0.375 l -0.03,-0.654 -0.39,0.021 0.19,3.317 0.38,-0.022 -0.03,-0.621 c -0.01,-0.185 0.02,-0.327 0.08,-0.426 0.05,-0.071 0.14,-0.109 0.27,-0.117 l 2.41,-0.133 3.3,1.491 c 0.33,0.15 0.56,0.313 0.69,0.488 0.13,0.175 0.2,0.421 0.22,0.736 l 0.38,-0.023 -0.15,-2.754 -0.39,0.02 0.02,0.337 c 0.01,0.205 -0.03,0.367 -0.13,0.483 -0.1,0.117 -0.24,0.181 -0.42,0.191 -0.13,0.008 -0.26,-0.016 -0.37,-0.068 l -2.63,-1.176 2.89,-2.002 c 0.07,-0.05 0.15,-0.075 0.24,-0.08 0.08,-0.005 0.16,0.034 0.21,0.119 0.05,0.085 0.09,0.274 0.1,0.567 l 0.02,0.349 0.39,-0.021 z m -54.171,1.277 c -0.086,-0.043 -0.232,0.003 -0.377,0.174 -0.199,0.235 -2.478,3.903 -3.243,4.984 -0.763,1.081 -4.299,6.406 -4.668,7.278 -0.368,0.87 -0.316,1.766 0.844,1.423 1.16,-0.343 2.902,-1.267 3.772,-3.271 0.87,-2.004 0.553,-3.743 1.371,-5.615 0.817,-1.873 2.136,-4.245 2.32,-4.614 0.093,-0.185 0.066,-0.316 -0.019,-0.359 z m -33.553,0.154 c 0.125,-0.006 0.296,0.098 0.428,0.151 0,0 0.423,0 0.685,0.052 0.264,0.054 0.054,0.264 0.264,0.528 0.211,0.264 0.422,0.316 1.054,0.738 0.633,0.421 0.566,0.459 0.198,0.512 -0.369,0.052 -0.691,0.055 -1.041,0.174 -0.675,0.231 -0.463,0.112 -0.991,0.322 -0.527,0.211 -0.697,0.101 -0.75,-0.215 -0.052,-0.316 0.105,-0.95 0,-1.74 -0.052,-0.396 0.028,-0.515 0.153,-0.522 z m 15.58,0.086 c -0.102,0 -0.202,0.119 -0.229,0.303 -0.052,0.37 0.95,3.659 1.53,5.258 0.58,1.599 2.283,4.905 3.955,6.791 0.817,0.924 2.189,1.794 2.717,1.873 0.313,0.046 0.791,0.079 0.58,-1.371 -0.178,-1.219 -1.056,-2.954 -2.401,-4.166 -1.344,-1.213 -2.874,-1.819 -4.113,-4.008 -1.24,-2.189 -1.713,-3.692 -1.793,-4.272 -0.039,-0.29 -0.144,-0.408 -0.246,-0.408 z m 46.014,2.229 c -0.11,0.027 -0.24,0.14 -0.34,0.367 -0.26,0.606 -1.42,2.559 -1.84,3.799 -0.42,1.239 -0.72,3.099 -1.08,3.955 -0.56,1.291 -1.8,3.531 -1.8,6.537 0,2.769 0.82,1.899 1.48,1.371 0.49,-0.396 1.85,-2.213 1.98,-4.666 0.13,-2.451 -0.19,-3.402 -0.11,-4.588 0.08,-1.186 0.35,-3.242 0.85,-4.297 0.5,-1.055 0.66,-1.398 1,-2.031 0.16,-0.299 0.04,-0.492 -0.14,-0.447 z m 5.01,0.138 c -0.06,0.003 -0.13,0.024 -0.18,0.071 -0.27,0.233 -1,1.187 -1.69,2.373 -0.68,1.187 -2.82,3.191 -3.37,4.562 -0.55,1.372 -0.37,2.531 -0.34,2.979 0.02,0.449 0.5,1.398 1.74,0.502 1.23,-0.896 1.79,-2.03 2,-2.953 0.21,-0.923 0.29,-3.138 0.39,-3.928 0.11,-0.791 0.67,-2.084 0.88,-2.348 0.21,-0.264 0.6,-0.738 0.79,-0.949 0.13,-0.158 -0.04,-0.317 -0.22,-0.309 z m -84.352,1.118 c -0.089,0.024 -0.136,0.152 -0.039,0.459 0.193,0.612 1.29,3.616 1.549,4.328 0.258,0.71 0.904,2.84 2.197,3.939 0.87,0.739 1.259,1.421 2.842,1.873 0.72,0.206 1.066,-0.678 1.066,-0.678 l 0.193,0.032 c 0,0 0.323,0.419 0.776,2.679 0.343,1.722 1.323,3.231 1.711,3.36 0.387,0.13 1.476,0.19 1.615,-1.389 0.161,-1.84 -0.098,-2.711 -1.713,-5.101 -1.614,-2.39 -2.841,-4.07 -3.229,-5.006 -0.387,-0.937 -1.81,-3.358 -2.003,-3.842 -0.194,-0.485 -0.644,-0.325 -0.354,0.16 0.291,0.484 1.258,2.906 1.582,3.649 0.323,0.742 0.872,2.389 0.775,2.777 0,0 -1.97,-2.002 -3.035,-2.649 -1.066,-0.645 -2.52,-2.485 -2.777,-2.937 -0.259,-0.451 -0.743,-1.26 -0.873,-1.486 -0.064,-0.114 -0.195,-0.193 -0.283,-0.168 z m 33.613,0.291 c -0.13,-0.053 -0.284,0.241 -0.301,0.588 -0.026,0.553 0.096,2.369 0.789,4.138 0.818,2.084 1.689,3.692 2.006,4.799 0.355,1.244 1.424,4.54 4.586,5.854 1.714,0.712 1.608,-0.844 1.529,-1.186 -0.208,-0.913 -1.19,-2.708 -2.609,-4.008 -0.632,-0.58 -2.427,-1.924 -3.982,-4.113 -0.722,-1.014 -1.609,-2.188 -1.846,-5.537 -0.024,-0.347 -0.094,-0.504 -0.172,-0.535 z m 17.361,1.509 c -0.133,0.066 -0.208,0.358 -0.445,1.11 -0.316,1.001 -0.82,2.445 -1.951,4.111 -0.95,1.398 -2.584,3.218 -3.428,3.955 -0.844,0.739 -1.844,2.516 -2.162,3.27 -0.422,1.002 0.053,1.355 0.738,1.265 1.213,-0.157 1.766,-0.763 2.795,-1.502 1.403,-1.007 2.584,-3.929 3.031,-5.748 0.388,-1.572 1.424,-4.905 1.582,-5.406 0.159,-0.5 0.264,-0.974 0,-1.053 -0.065,-0.02 -0.115,-0.023 -0.16,-0.002 z m 36.828,0.918 c -0.05,0.021 -0.12,0.072 -0.18,0.164 -0.18,0.289 -2.87,3.745 -3.45,4.457 -0.58,0.712 -3.43,3.56 -4.32,4.245 -0.9,0.685 -2.77,2.268 -3.64,3.824 -0.55,0.982 -0.4,1.607 0.95,1.107 1.34,-0.501 2.69,-1.189 4.32,-3.244 1.32,-1.661 0.87,-1.635 2.3,-3.744 0.62,-0.92 2.29,-3.612 2.61,-4.061 0.31,-0.447 1.39,-2.134 1.58,-2.398 0.14,-0.198 0.01,-0.411 -0.17,-0.35 z m -13.01,0.225 c -0.1,-0.018 -0.25,0.062 -0.43,0.309 -0.22,0.308 -1.748,3.017 -1.948,3.638 -0.264,0.818 -0.732,2.573 -1.635,5.906 -0.606,2.242 -0.975,3.323 -0.949,4.958 0.017,1.135 0.158,1.913 0.658,1.951 0.713,0.052 1.214,-0.661 1.873,-1.557 0.661,-0.896 0.951,-3.162 0.951,-4.086 0,-0.922 -0.27,-2.979 -0.27,-3.849 0,-0.87 -0.18,-1.899 0.37,-3.376 0.49,-1.312 1.22,-2.874 1.45,-3.296 0.15,-0.264 0.11,-0.567 -0.07,-0.598 z m -78.173,0.713 c -0.097,0.024 -0.146,0.145 -0.018,0.42 0.34,0.721 2.036,3.844 3.231,5.039 1.195,1.195 1.874,2.051 2.615,3.195 0.355,0.55 1.74,2.303 2.229,2.584 0.452,0.261 1.29,0.757 3.164,0.711 1.291,-0.032 0.775,-1.226 0.775,-1.226 -0.259,-0.582 -0.581,-1.068 -1.453,-1.907 -0.871,-0.84 -1.099,-1.129 -2.229,-1.582 -1.13,-0.452 -3.68,-1.937 -4.455,-2.455 -0.775,-0.516 -1.938,-2.032 -2.295,-2.549 -0.355,-0.517 -1.129,-1.842 -1.257,-2.068 -0.065,-0.113 -0.21,-0.187 -0.307,-0.162 z m -14.389,0.633 c -0.31,0.02 -0.5686,0.141 -0.7773,0.365 -0.2075,0.222 -0.3027,0.482 -0.2852,0.777 0.0188,0.298 0.1452,0.545 0.3789,0.739 0.2338,0.195 0.5045,0.282 0.8145,0.263 0.31,-0.019 0.5689,-0.139 0.7769,-0.363 0.208,-0.224 0.303,-0.482 0.286,-0.777 -0.018,-0.294 -0.144,-0.54 -0.375,-0.737 -0.2329,-0.196 -0.505,-0.286 -0.8188,-0.267 z m 120.98,0.068 c -0.31,-0.019 -0.58,0.067 -0.82,0.264 -0.23,0.196 -0.36,0.441 -0.37,0.736 -0.02,0.295 0.07,0.554 0.28,0.777 0.2,0.224 0.46,0.347 0.78,0.366 0.31,0.02 0.58,-0.07 0.81,-0.266 0.24,-0.196 0.36,-0.441 0.38,-0.734 0.02,-0.299 -0.07,-0.56 -0.28,-0.782 -0.21,-0.222 -0.47,-0.341 -0.78,-0.361 z m -93.437,1.113 c -0.113,0.033 -0.185,0.171 -0.088,0.43 0.194,0.519 1.1,2.041 1.49,2.916 0.389,0.876 1.135,4.051 1.233,4.732 0.097,0.68 0.291,2.982 0.551,3.825 0.258,0.842 0.484,2.463 1.23,2.982 0,0 0.763,0.817 1.264,-0.293 0.357,-0.792 0.486,-2.429 0,-4.406 -0.486,-1.978 -2.755,-5.315 -3.078,-5.899 -0.324,-0.582 -2.14,-3.76 -2.27,-4.084 -0.065,-0.161 -0.218,-0.235 -0.332,-0.203 z m 3.736,2.787 c -0.128,0.027 -0.222,0.161 -0.13,0.399 0.162,0.421 1.881,4.601 2.009,5.443 0.13,0.843 1.46,6.936 1.752,7.551 0.292,0.616 1.036,1.686 1.717,1.686 0.68,0 1.232,-1.069 1.199,-1.555 -0.057,-0.874 -0.585,-2.982 -1.525,-4.506 -0.94,-1.524 -2.624,-4.504 -2.981,-5.283 -0.356,-0.778 -1.587,-3.338 -1.75,-3.598 -0.04,-0.065 -0.096,-0.106 -0.156,-0.127 -0.045,-0.015 -0.092,-0.018 -0.135,-0.01 z m 38.385,0.041 c -0.087,-0.008 -0.195,0.087 -0.287,0.325 -0.359,0.922 -1.968,3.093 -2.742,3.902 -0.773,0.808 -1.863,1.778 -2.602,2.461 -0.457,0.421 -2.215,2.284 -2.847,3.338 -0.518,0.862 -0.578,1.902 -0.528,2.357 0.07,0.633 0.705,0.352 0.705,0.352 0,0 0.398,-0.116 0.883,-0.344 1.425,-0.669 1.752,-1.099 2.311,-1.736 0.704,-0.804 1.553,-2.668 1.834,-3.477 0.28,-0.809 1.158,-2.812 1.791,-3.621 0.844,-1.077 1.499,-2.594 1.584,-2.848 0.131,-0.395 0.043,-0.694 -0.102,-0.709 z m -18.189,0.034 c -0.119,-0.028 -0.317,0.098 -0.239,0.361 0.107,0.351 1.701,4.701 2.18,5.518 0.844,1.442 1.618,4.747 3.375,6.365 1.758,1.617 2.601,1.862 3.024,1.652 0.562,-0.281 0.175,-1.568 0.175,-1.568 -0.245,-0.964 -0.844,-2.193 -2.285,-3.74 -1.441,-1.548 -2.741,-2.182 -3.199,-2.709 -0.457,-0.528 -1.371,-1.758 -1.863,-3.059 -0.493,-1.3 -1.054,-2.565 -1.09,-2.74 -0.009,-0.044 -0.039,-0.071 -0.078,-0.08 z m 69.125,0.896 c -0.21,-0.002 -0.41,0.013 -0.58,0.045 -0.49,0.094 -0.88,0.286 -1.18,0.578 -0.3,0.291 -0.49,0.664 -0.56,1.119 -0.1,0.619 0.06,1.182 0.49,1.686 0.42,0.504 1.04,0.821 1.84,0.951 0.75,0.121 1.4,0.005 1.95,-0.348 0.55,-0.352 0.87,-0.842 0.97,-1.472 0.15,-0.924 -0.23,-1.712 -1.15,-2.364 l -0.2,0.303 c 0.72,0.526 1.02,1.117 0.92,1.774 -0.07,0.445 -0.31,0.782 -0.7,1.013 -0.35,0.202 -0.91,0.25 -1.67,0.145 l 0.55,-3.371 c -0.25,-0.037 -0.47,-0.057 -0.68,-0.059 z m -32.348,0.053 c -0.103,-0.026 -0.25,0.044 -0.418,0.271 -0.161,0.219 -2.082,4.524 -3.058,6.963 -0.977,2.439 -1.186,3.374 -1.133,4.639 0.052,1.266 1.025,2.611 1.476,2.611 0.608,0 1.687,-0.87 1.899,-3.375 0.211,-2.504 0.104,-3.321 0.025,-4.138 -0.105,-1.093 -0.263,-2.743 0.053,-3.508 0.317,-0.764 0.985,-2.359 1.215,-2.795 0.165,-0.313 0.112,-0.625 -0.059,-0.668 z m -87.932,0.047 c -0.1799,0.002 -0.3668,0.019 -0.5606,0.051 -0.7712,0.127 -1.3636,0.443 -1.7773,0.947 -0.4138,0.504 -0.5714,1.059 -0.4727,1.668 0.0675,0.412 0.2408,0.777 0.5196,1.097 0.2787,0.32 0.6258,0.546 1.0371,0.676 0.4112,0.129 0.8877,0.149 1.4277,0.059 0.7817,-0.129 1.3747,-0.449 1.7837,-0.957 0.407,-0.509 0.558,-1.081 0.455,-1.713 -0.102,-0.623 -0.43,-1.106 -0.983,-1.451 -0.414,-0.259 -0.89,-0.384 -1.4295,-0.377 z m 119.31,0.754 c 0.17,-0.031 0.36,-0.032 0.55,0 0.21,0.033 0.35,0.092 0.43,0.173 0.07,0.082 0.1,0.183 0.08,0.303 l -0.33,2.037 c -0.65,-0.116 -1.13,-0.321 -1.41,-0.617 -0.29,-0.296 -0.41,-0.616 -0.35,-0.965 0.05,-0.312 0.23,-0.561 0.53,-0.746 0.16,-0.093 0.32,-0.155 0.5,-0.185 z m -118.69,0.142 c 0.29,0.014 0.534,0.067 0.732,0.158 0.395,0.183 0.622,0.463 0.684,0.836 0.066,0.399 -0.052,0.745 -0.352,1.041 -0.301,0.295 -0.833,0.507 -1.5938,0.633 -0.8187,0.135 -1.4301,0.11 -1.8301,-0.072 -0.4012,-0.184 -0.6335,-0.471 -0.6972,-0.863 -0.0613,-0.378 0.0693,-0.716 0.3906,-1.016 0.3213,-0.299 0.873,-0.513 1.6543,-0.643 0.3837,-0.063 0.7212,-0.088 1.0122,-0.074 z m 83.769,1.633 c -0.071,0.017 -0.142,0.063 -0.201,0.148 -0.134,0.194 -2.214,4.483 -2.635,5.168 -0.422,0.687 -1.978,3.533 -1.926,5.932 0.053,2.4 0.816,3.353 1.186,3.375 0.421,0.028 1.792,-0.974 2.215,-3.769 0.421,-2.795 -0.263,-3.48 -0.078,-5.141 0.183,-1.661 0.5,-2.454 0.685,-2.902 0.185,-0.448 0.948,-2.188 1.08,-2.452 0.099,-0.197 -0.113,-0.41 -0.326,-0.359 z m -34.654,0.022 c -0.097,-0.014 -0.176,0.083 -0.123,0.33 0.105,0.491 0.859,4.705 1.476,6.396 0.618,1.693 2.497,6.047 4.324,7.559 1.499,1.24 3.523,1.848 3.692,1.933 0.211,0.105 0.246,-0.034 0.281,0.422 0.036,0.458 0.158,0.917 0.158,1.131 0,0.325 0.123,0.302 0.123,1.357 0,0.423 0.198,1.307 0.198,1.848 0,0.98 0.224,1.78 0.154,2.34 0,0 0,2.05 -0.176,2.46 -0.176,0.42 0.072,0.88 -0.808,0.43 -0.879,-0.46 -2.543,-1.58 -3.059,-1.9 -0.633,-0.39 -2.249,-1.93 -2.285,-2.28 -0.035,-0.36 0.316,-0.46 0.527,-1.06 0.211,-0.597 0.282,-1.548 -0.246,-3.025 -0.527,-1.476 -1.721,-2.951 -2.143,-3.479 -0.422,-0.527 -2.393,-2.777 -2.779,-3.164 -0.387,-0.387 -2.233,-2.886 -2.39,-3.201 -0.175,-0.351 -0.808,-0.526 -0.563,0.143 0.246,0.667 1.549,2.072 2.322,3.513 0.773,1.442 1.817,4.72 1.897,5.028 0.176,0.667 0,0.739 0.351,2.004 0.353,1.266 0.985,2.601 1.266,2.881 0.281,0.28 0.563,0.46 0.422,0.77 -0.14,0.32 -0.913,0.18 -1.369,0.18 -0.458,0 -2.075,0.04 -2.813,0.18 0,0 0.49,-0.64 0.631,-1.13 0.14,-0.49 -0.211,-0.95 -0.211,-0.95 0,0 0.563,-0.139 0.809,-0.806 0.246,-0.668 0.668,-2.531 -0.457,-4.641 -1.125,-2.109 -2.691,-4.924 -3.235,-5.588 -0.632,-0.774 -2.988,-4.959 -3.304,-5.24 -0.317,-0.281 -0.528,0.035 -0.352,0.246 0.175,0.211 2.154,3.679 2.602,4.781 0.527,1.302 0.914,2.919 1.16,4.678 0.316,2.261 0.668,3.903 1.055,4.57 0.386,0.668 0.948,1.406 1.054,1.547 0.105,0.14 0,0.209 -0.246,0.209 -0.246,0 -2.636,-0.28 -3.656,-0.103 -1.191,0.205 -1.232,0.138 -2.004,0.347 -0.341,0.1 -0.985,0.29 -2.25,0.78 0,0 -0.938,0.53 -2.906,0.46 -2.144,-0.08 -1.915,-0.09 -2.606,-0.27 -0.537,-0.15 -0.604,-0.16 -1.025,-0.33 -0.423,-0.18 -0.706,0.28 -0.213,0.49 0.492,0.21 4.818,1.48 6.154,1.62 0.979,0.1 1.159,0.21 2.178,0.38 1.02,0.18 3.094,0.18 3.094,0.18 0,0 -1.449,0.81 -3.866,1.16 -1.441,0.21 -2.549,0.07 -3.166,-0.11 -0.597,-0.17 -1.818,-0.5 -1.019,0.21 0.316,0.28 1.09,0.32 1.758,0.46 0.667,0.14 3.516,0.35 4.781,0.63 1.266,0.28 1.864,0.57 3.762,0.6 1.898,0.04 3.798,-0.14 4.853,-0.7 1.054,-0.56 1.71,-1.6 2.002,-1.83 0.528,-0.42 0.81,-0.03 1.266,0.14 0.457,0.18 3.972,2.29 4.183,2.46 0.212,0.18 0.4,0.23 -0.138,0.56 -0.915,0.57 -4.501,2.08 -5.135,2.33 -0.633,0.24 -0.175,0.52 0.176,0.59 0.351,0.07 1.02,-0.07 1.652,-0.31 0.633,-0.25 3.024,-1.59 3.375,-1.69 0.351,-0.11 0.668,-0.21 0.598,0.38 0,0 0.14,0.63 0.14,1.33 0,0.44 0.457,0.68 0.668,0.68 0.212,0 0.247,-0.11 0.282,-0.64 0.035,-0.52 -0.036,-1.54 -0.036,-1.75 0,-0.21 0.071,-0.39 0.457,-0.18 0.388,0.21 2.814,1.83 4.747,3.55 0.316,0.29 0.808,0.29 0.878,0.04 0.072,-0.25 0.212,-0.53 -0.281,-0.84 -0.491,-0.32 -4.605,-3.1 -4.886,-3.41 -0.282,-0.32 -0.282,-0.39 0.21,-0.67 0.493,-0.29 3.621,-2.08 4.114,-2.29 0.492,-0.21 1.617,-0.35 1.898,-0.35 0.281,0 0.55,-0.02 0.914,0.31 0.493,0.46 2.707,1.52 4.957,1.55 2.778,0.04 6.259,-1.09 7.209,-1.23 0.949,-0.14 3.373,-0.6 3.69,-0.6 0.316,0 0.492,-0.38 0.035,-0.38 -0.458,0 -3.761,0.46 -6.117,0.17 -2.355,-0.28 -5.661,-1.3 -7.102,-1.3 -1.441,0 -2.601,0.35 -2.953,0.35 -0.351,0 -0.158,-0.64 0,-0.77 0.211,-0.17 0.881,-0.89 1.371,-1.83 0.704,-1.332 0.914,-2.881 1.16,-4.85 0.246,-1.967 1.189,-4.442 1.653,-5.097 0.598,-0.844 2.111,-2.636 2.322,-2.776 0.21,-0.141 -0.035,-0.635 -0.563,-0.107 -0.527,0.527 -3.025,3.059 -4.326,5.027 -1.301,1.969 -3.361,5.089 -3.656,7.032 -0.246,1.621 0.246,1.901 0.351,2.181 0.107,0.28 0.598,0.7 -0.527,1.44 -1.124,0.74 -4.248,2.41 -4.676,2.57 -0.562,0.21 -0.732,0.34 -0.562,-0.95 0.281,-2.15 -0.31,-4.19 -0.176,-4.993 0.035,-0.212 0.307,-2.606 0.389,-3.411 0.035,-0.351 0.455,-0.632 0.982,-0.843 0.528,-0.212 1.549,-0.774 2.393,-1.688 0.843,-0.915 1.717,-1.83 2.777,-5.344 0.773,-2.566 0.809,-3.306 1.969,-6.084 0.571,-1.367 0.806,-2.037 0.982,-2.423 0.177,-0.388 -0.209,-0.423 -0.455,0.035 -0.247,0.456 -1.795,3.726 -2.111,4.183 -0.316,0.457 -3.797,3.973 -4.676,5.168 -0.879,1.195 -1.899,3.866 -2.109,4.604 -0.212,0.739 -0.538,1.29 -0.809,1.336 -0.387,0.065 -1.16,-1.229 -1.406,-1.826 -0.246,-0.599 -0.561,-1.654 -1.193,-2.393 -0.634,-0.739 -2.287,-1.616 -2.745,-2.002 -0.457,-0.387 -2.847,-2.602 -3.515,-4.219 -0.668,-1.617 -1.196,-4.5 -1.231,-4.886 -0.017,-0.194 -0.132,-0.317 -0.228,-0.33 z m -33.492,0.251 c -0.146,0.059 -0.04,0.502 0.095,0.706 0.195,0.292 2.052,2.417 4.28,3.955 2.301,1.587 5.054,3.368 7.064,3.531 2.009,0.161 1.977,10e-4 2.27,-0.129 0.291,-0.13 0.873,-0.422 0.322,-1.395 -0.373,-0.657 -2.204,-1.814 -3.598,-2.203 -1.394,-0.388 -2.461,-0.195 -3.758,-0.422 -1.297,-0.226 -4.248,-1.396 -6.093,-3.597 -0.316,-0.377 -0.495,-0.48 -0.582,-0.446 z m 18.896,0.133 c -0.109,0.029 -0.165,0.167 -0.035,0.475 0.259,0.616 1.878,3.63 2.203,4.375 0.324,0.746 0.647,2.592 0.68,3.76 0.032,1.166 0.422,3.402 1.006,4.375 0,0 0.842,2.138 1.912,2.009 0,0 1.004,-0.226 1.004,-1.654 0,-0.486 -0.037,-0.668 0.13,-0.226 0.26,0.68 0.29,1.427 0.323,1.718 0.032,0.292 0.844,2.365 1.427,2.754 0.584,0.389 1.201,0.423 1.557,-1.004 0.356,-1.426 0.42,-2.203 0.031,-3.175 -0.39,-0.973 -1.393,-2.983 -2.172,-4.053 -0.777,-1.069 -2.332,-3.271 -2.527,-3.822 -0.194,-0.552 -1.62,-3.112 -1.75,-3.307 -0.13,-0.194 -0.649,-0.033 -0.357,0.357 0.291,0.389 1.328,2.495 1.652,3.143 0.324,0.649 0.649,2.267 0.973,2.916 0.205,0.41 0,0.357 0,0.357 0,0 0.032,0.454 -0.291,-0.291 -0.325,-0.746 -0.973,-1.881 -1.946,-3.242 -0.733,-1.027 -2.072,-2.625 -2.461,-3.273 -0.39,-0.648 -0.844,-1.749 -1.005,-2.008 -0.082,-0.13 -0.245,-0.212 -0.354,-0.184 z m 45.231,1.028 c -0.049,0.01 -0.103,0.044 -0.153,0.105 -0.381,0.468 -0.535,0.804 -0.982,1.854 -0.219,0.513 -1.162,4.335 -1.319,4.826 -0.156,0.492 -0.939,3.039 -1.363,3.955 -0.425,0.916 -0.736,2.703 -0.558,4.244 0.178,1.542 0.179,2.146 1.251,1.498 0.574,-0.346 1.497,-1.007 1.877,-2.838 0.38,-1.832 0.134,-3.955 0.067,-5.094 -0.066,-1.14 0,-3.91 0.246,-5.207 0.246,-1.296 0.826,-2.568 1.027,-2.925 0.151,-0.269 0.051,-0.449 -0.093,-0.418 z m 21.636,0.673 c -0.07,-0.008 -0.15,0.01 -0.23,0.071 -0.4,0.29 -2.45,1.383 -4.14,1.926 -1.98,0.632 -8.174,3.242 -8.411,3.427 -0.283,0.22 -0.606,0.554 -0.475,0.975 0.133,0.422 0.817,0.739 1.526,0.924 0.71,0.183 1.4,0.263 1.4,0.263 0,0 -0.42,0.291 -1.27,0.317 -0.839,0.026 -2.738,0.712 -3.476,1.135 -0.739,0.421 -1.539,0.823 -1.344,1.607 0.053,0.21 0.713,0.501 1.293,0.555 0.408,0.036 1.183,0.272 2.108,0.131 1.212,-0.185 2.759,-0.828 5.589,-2.665 3.01,-1.95 5.59,-3.611 5.85,-3.796 0.27,-0.185 0.19,-0.605 -0.31,-0.315 -0.5,0.29 -2.02,1.266 -3.85,1.844 -1.5,0.475 -2.93,0.791 -2.93,0.791 0,0 0.03,-0.237 0.42,-0.395 0.4,-0.158 1.48,-0.949 2.06,-1.806 0.58,-0.858 2.19,-2.254 2.74,-2.571 0.56,-0.316 3.19,-1.793 3.51,-1.978 0.24,-0.138 0.14,-0.413 -0.06,-0.44 z m -99.191,0.213 -0.451,0.11 0.195,0.8 -3.6465,0.891 c -0.1325,0.031 -0.2384,0.023 -0.3184,-0.031 -0.0787,-0.054 -0.1391,-0.169 -0.1816,-0.344 l -0.0957,-0.39 -0.3906,0.095 0.6933,2.838 0.3906,-0.096 -0.1543,-0.634 c -0.0437,-0.178 -0.0351,-0.326 0.0274,-0.446 0.0487,-0.088 0.1526,-0.153 0.3164,-0.193 l 3.5604,-0.869 0.281,1.158 0.454,-0.111 -0.284,-1.157 1.082,-0.265 c 0.517,-0.125 0.931,-0.125 1.241,0.004 0.308,0.127 0.495,0.33 0.564,0.609 0.036,0.149 0.038,0.265 0.008,0.352 -0.031,0.085 -0.076,0.135 -0.135,0.15 -0.041,0.01 -0.115,-0.023 -0.223,-0.098 -0.132,-0.093 -0.28,-0.12 -0.443,-0.08 -0.142,0.035 -0.249,0.109 -0.32,0.223 -0.073,0.112 -0.091,0.238 -0.057,0.377 0.039,0.155 0.128,0.269 0.27,0.34 0.14,0.072 0.31,0.084 0.511,0.035 0.309,-0.075 0.532,-0.241 0.672,-0.496 0.14,-0.256 0.166,-0.569 0.074,-0.942 -0.122,-0.5 -0.45,-0.863 -0.984,-1.091 -0.535,-0.229 -1.231,-0.24 -2.09,-0.03 l -0.369,0.09 z m 115.62,0.164 c -0.24,-0.002 -0.49,0.082 -0.75,0.254 -0.33,0.23 -0.56,0.573 -0.67,1.028 -0.16,0.605 -0.05,1.188 0.31,1.756 0.36,0.565 0.97,0.957 1.82,1.173 0.75,0.187 1.39,0.133 1.94,-0.162 0.55,-0.296 0.91,-0.765 1.07,-1.406 0.22,-0.876 -0.14,-1.567 -1.07,-2.074 l -0.18,0.297 c 0.7,0.465 0.97,0.978 0.83,1.541 -0.1,0.407 -0.37,0.698 -0.79,0.871 -0.42,0.174 -0.98,0.173 -1.68,-0.002 -0.73,-0.184 -1.28,-0.48 -1.65,-0.889 -0.26,-0.285 -0.33,-0.628 -0.23,-1.029 0.05,-0.22 0.15,-0.382 0.27,-0.486 0.13,-0.104 0.24,-0.145 0.34,-0.12 0.04,0.01 0.08,0.05 0.14,0.12 0.11,0.146 0.24,0.237 0.39,0.275 0.15,0.039 0.3,0.02 0.43,-0.055 0.13,-0.075 0.22,-0.186 0.25,-0.334 0.04,-0.151 0.01,-0.298 -0.09,-0.439 -0.1,-0.143 -0.24,-0.239 -0.44,-0.287 -0.08,-0.021 -0.16,-0.031 -0.24,-0.032 z m -99.711,3.393 c -0.149,0.017 -0.288,0.157 -0.117,0.352 0.226,0.258 1.463,1.346 5.185,3.209 0.454,0.227 3.013,0.971 3.825,1.521 0.712,0.486 3.078,1.621 3.078,1.621 0,0 0.033,0.259 -0.842,0.291 0,0 -1.46,0.292 -2.076,0.324 -0.615,0.033 -4.375,0.003 -4.764,-0.062 -0.389,-0.065 -0.549,0.389 -0.096,0.486 0.454,0.096 1.977,0.486 3.078,0.68 1.103,0.195 2.884,0.518 3.629,0.648 0.745,0.129 3.048,0.712 3.793,1.069 0.747,0.356 2.593,0.807 4.116,0.777 1.685,-0.033 2.539,-0.486 2.56,-0.811 0.033,-0.486 -0.172,-0.867 -1.199,-1.521 -0.356,-0.228 -1.035,-0.844 -1.619,-0.973 -0.466,-0.103 -1.071,-0.367 -1.59,-0.453 -0.389,-0.065 -0.356,-0.228 -0.291,-0.519 0.1,-0.452 0.242,-1.032 -0.713,-1.619 -0.842,-0.519 -2.139,-1.169 -3.889,-1.59 -1.588,-0.383 -2.14,-0.454 -2.982,-0.389 -0.843,0.065 -2.917,-0.098 -3.533,-0.227 -0.617,-0.13 -2.334,-0.746 -3.403,-1.459 -1.07,-0.713 -1.847,-1.23 -2.009,-1.328 -0.041,-0.024 -0.091,-0.033 -0.141,-0.027 z m 58.412,0.049 c -0.117,0.012 -0.271,0.165 -0.32,0.375 -0.081,0.342 -0.443,2.118 -1.379,4.262 -0.938,2.142 -3.353,5.221 -3.942,6.75 -0.665,1.723 -0.752,2.921 -0.566,3.625 0.099,0.37 0.32,0.69 0.566,0.71 0.247,0.03 0.518,-0.02 0.518,-0.02 0,0 0.296,1.01 2.045,1.52 1.289,0.39 3.078,0.4 4.852,0.03 1.516,-0.32 3.203,-0.77 4.066,-0.77 1.182,0 2.368,-0.22 2.881,-0.29 0.345,-0.05 2.379,-0.4 2.736,-0.52 0.148,-0.05 0.567,-0.37 -0.197,-0.34 0,0 -2.168,0.27 -3.721,0.24 -1.552,-0.02 -5.768,-0.15 -6.603,-0.22 -0.838,-0.07 -2.907,-0.21 -3.694,-0.15 -0.32,0.03 -1.208,0.18 -1.404,0.15 -0.148,-0.02 -0.37,-0.07 -0.025,-0.47 0.345,-0.391 1.23,-1.353 1.748,-2.683 0.517,-1.33 1.134,-3.128 1.306,-5.148 0.173,-2.02 1.036,-5.863 1.233,-6.577 0.098,-0.357 0.017,-0.487 -0.1,-0.474 z m 39.669,1.906 c -0.31,0.026 -0.56,0.118 -0.76,0.275 -0.19,0.158 -0.34,0.387 -0.45,0.684 -0.12,0.345 -0.15,0.684 -0.07,1.018 0.07,0.335 0.25,0.663 0.52,0.986 -0.41,-0.113 -0.77,-0.189 -1.09,-0.234 l -0.43,1.525 0.32,0.115 0.09,-0.23 c 0.06,-0.195 0.17,-0.325 0.31,-0.393 0.14,-0.066 0.31,-0.063 0.52,0.008 l 3.05,1.086 c 0.1,0.036 0.17,0.107 0.21,0.213 0.04,0.105 0.03,0.236 -0.03,0.392 l -0.11,0.313 0.38,0.135 0.84,-2.379 -0.37,-0.135 -0.11,0.312 c -0.07,0.174 -0.15,0.283 -0.24,0.333 -0.1,0.048 -0.24,0.045 -0.41,-0.016 l -1.75,-0.623 c -0.49,-0.175 -0.85,-0.437 -1.07,-0.787 -0.22,-0.35 -0.26,-0.707 -0.14,-1.069 0.13,-0.363 0.38,-0.583 0.75,-0.654 0.26,-0.051 0.6,0.001 1.04,0.158 l 2.03,0.719 c 0.14,0.051 0.23,0.13 0.27,0.238 0.04,0.108 0.03,0.268 -0.05,0.479 l -0.08,0.226 0.38,0.133 0.84,-2.367 -0.38,-0.135 -0.11,0.317 c -0.06,0.171 -0.14,0.282 -0.24,0.33 -0.1,0.047 -0.23,0.041 -0.4,-0.02 l -2.31,-0.818 c -0.33,-0.118 -0.64,-0.162 -0.95,-0.135 z m -116.76,2.143 -0.3711,0.148 1.0258,2.527 0.373,-0.15 -0.098,-0.234 c -0.111,-0.274 -0.137,-0.508 -0.078,-0.698 0.057,-0.19 0.167,-0.316 0.328,-0.382 0.139,-0.057 0.345,-0.091 0.617,-0.102 l 1.026,-0.039 1.119,2.758 -1.325,1.209 c -0.053,0.047 -0.107,0.083 -0.164,0.105 -0.096,0.039 -0.184,0.028 -0.263,-0.035 -0.115,-0.092 -0.23,-0.283 -0.348,-0.572 l -0.09,-0.223 -0.373,0.151 1.131,2.783 0.371,-0.153 -0.088,-0.216 c -0.126,-0.312 -0.073,-0.572 0.157,-0.784 l 5.699,-5.226 -0.129,-0.315 -7.19,0.159 c -0.401,0.008 -0.694,-0.041 -0.882,-0.147 -0.188,-0.106 -0.3377,-0.294 -0.4477,-0.564 z m 7.0507,0.988 -2.779,2.539 -1,-2.461 z m 88.68,1.617 c -0.05,-0.005 -0.1,-0.004 -0.14,0.002 -0.07,0.008 -0.13,0.024 -0.16,0.041 -0.13,0.066 -1.47,0.87 -2.34,1.16 -0.88,0.29 -2.69,0.358 -3.245,0.469 -0.559,0.112 -3.15,0.269 -3.887,0.314 -0.737,0.045 -1.899,0.157 -2.726,0.268 -0.505,0.069 -1.921,0.581 -2.256,0.76 -0.353,0.189 -0.927,0.601 -0.895,0.916 0.045,0.446 0.997,1.049 2.192,1.297 1.295,0.267 1.966,0.154 4.111,-0.627 2.144,-0.783 2.592,-1.566 4.446,-2.123 1.85,-0.559 2.26,-0.714 2.64,-0.848 0.37,-0.135 2.12,-0.938 2.36,-1.318 0.14,-0.214 0.04,-0.294 -0.1,-0.311 z m 19.52,0.924 c -0.49,-0.048 -0.93,0.029 -1.3,0.226 -0.37,0.197 -0.65,0.503 -0.85,0.92 -0.26,0.568 -0.26,1.152 0.01,1.754 0.27,0.603 0.77,1.079 1.51,1.426 0.68,0.324 1.34,0.393 1.96,0.205 0.63,-0.186 1.08,-0.568 1.35,-1.144 0.4,-0.848 0.25,-1.712 -0.46,-2.592 l -0.28,0.236 c 0.55,0.705 0.68,1.358 0.4,1.959 -0.19,0.408 -0.51,0.669 -0.96,0.781 -0.39,0.095 -0.93,-0.013 -1.63,-0.324 l 1.46,-3.086 c -0.46,-0.207 -0.86,-0.329 -1.21,-0.361 z m -0.6,0.666 c 0.18,0.019 0.35,0.07 0.53,0.154 0.19,0.09 0.31,0.186 0.36,0.283 0.05,0.099 0.05,0.203 0,0.313 l -0.89,1.869 c -0.59,-0.292 -0.99,-0.622 -1.18,-0.986 -0.2,-0.364 -0.22,-0.707 -0.07,-1.026 0.13,-0.285 0.38,-0.472 0.72,-0.564 0.18,-0.046 0.35,-0.062 0.53,-0.043 z m -88.092,1.502 c -0.234,0.035 -0.406,0.23 0.008,0.57 0.551,0.454 4.927,2.755 5.769,3.112 0.843,0.356 3.76,1.454 6.903,1.524 1.588,0.03 3.501,-0.487 3.986,-0.94 0.486,-0.454 0.94,-1.589 -0.68,-2.334 -0.5,-0.23 -1.588,-0.487 -2.172,-0.52 -1.942,-0.106 -2.236,-0.193 -2.918,-0.064 -0.68,0.13 -2.07,0.683 -4.146,0.648 -1.913,-0.032 -2.885,-0.162 -3.695,-0.551 -0.81,-0.389 -2.528,-1.328 -2.821,-1.426 -0.073,-0.024 -0.156,-0.031 -0.234,-0.019 z m -19.772,0.723 c -0.222,0.017 -0.439,0.083 -0.652,0.199 -0.27,0.147 -0.474,0.341 -0.613,0.582 -0.14,0.241 -0.215,0.529 -0.225,0.863 -0.269,-0.24 -0.509,-0.38 -0.724,-0.42 -0.215,-0.04 -0.422,-0.006 -0.622,0.104 -0.217,0.117 -0.358,0.29 -0.423,0.519 -0.065,0.228 -0.054,0.51 0.031,0.846 -0.276,-0.329 -0.535,-0.531 -0.774,-0.604 -0.238,-0.073 -0.451,-0.058 -0.636,0.043 -0.242,0.13 -0.393,0.371 -0.455,0.721 -0.079,0.445 0.055,0.988 0.402,1.63 0.421,0.77 0.92,1.26 1.496,1.45 0.41,0.14 0.802,0.11 1.178,-0.1 0.342,-0.18 0.545,-0.45 0.607,-0.8 0.063,-0.35 -0.057,-0.81 -0.359,-1.367 l -0.623,-1.092 c -0.14,-0.256 -0.201,-0.45 -0.186,-0.578 0.017,-0.128 0.085,-0.225 0.207,-0.291 0.152,-0.083 0.298,-0.087 0.438,-0.016 0.136,0.073 0.299,0.282 0.486,0.627 l 0.264,0.486 c 0.144,0.267 0.376,0.502 0.693,0.705 0.318,0.205 0.615,0.311 0.893,0.323 0.276,0.012 0.551,-0.056 0.824,-0.203 0.157,-0.085 0.29,-0.189 0.4,-0.311 0.112,-0.121 0.224,-0.297 0.34,-0.525 0.205,0.042 0.336,0.114 0.391,0.216 0.03,0.057 0.005,0.121 -0.076,0.196 -0.188,0.18 -0.235,0.353 -0.143,0.523 0.049,0.09 0.132,0.147 0.244,0.172 0.114,0.025 0.228,0.008 0.344,-0.055 0.144,-0.078 0.241,-0.195 0.287,-0.347 0.048,-0.153 0.029,-0.305 -0.051,-0.453 -0.136,-0.252 -0.443,-0.439 -0.922,-0.565 0.03,-0.251 0.023,-0.491 -0.019,-0.719 -0.043,-0.228 -0.119,-0.447 -0.233,-0.656 -0.276,-0.51 -0.648,-0.845 -1.109,-1.008 -0.231,-0.081 -0.458,-0.113 -0.68,-0.095 z m 85.054,0.218 c -0.06,-0.014 -0.15,-0.014 -0.23,0.008 -0.34,0.09 -1.764,0.491 -2.591,0.67 -0.826,0.179 -4.47,1.007 -6.078,1.207 -1.609,0.201 -4.714,0.582 -5.25,0.627 -0.417,0.035 -0.939,0.535 -0.916,0.736 0,0 0.091,0.604 1.521,0.827 1.43,0.22 1.876,0.2 4.11,-0.379 1.182,-0.308 2.323,-0.872 2.816,-1.051 0.491,-0.179 3.104,-1.296 3.797,-1.453 0.692,-0.157 2.591,-0.78 2.901,-0.893 0.24,-0.083 0.13,-0.256 -0.08,-0.299 z m 17.31,0.36 c -0.08,-0.011 -0.16,-0.007 -0.24,0.013 -0.16,0.042 -0.28,0.128 -0.35,0.26 -0.08,0.13 -0.09,0.276 -0.04,0.436 0.05,0.16 0.14,0.279 0.28,0.359 0.14,0.079 0.29,0.099 0.45,0.059 0.16,-0.04 0.28,-0.127 0.35,-0.262 0.08,-0.136 0.1,-0.283 0.05,-0.438 -0.05,-0.155 -0.14,-0.273 -0.28,-0.353 -0.07,-0.04 -0.15,-0.064 -0.22,-0.074 z m -101.55,0.189 c 0.3,0.061 0.522,0.225 0.666,0.49 0.144,0.267 0.158,0.544 0.039,0.834 -0.119,0.29 -0.364,0.535 -0.731,0.735 -0.396,0.213 -0.745,0.292 -1.05,0.236 -0.305,-0.056 -0.529,-0.218 -0.674,-0.486 -0.146,-0.268 -0.158,-0.549 -0.033,-0.84 0.123,-0.291 0.383,-0.543 0.779,-0.758 0.37,-0.201 0.705,-0.272 1.004,-0.211 z m 103.79,1.033 -0.88,1.68 0.34,0.199 0.2,-0.342 c 0.1,-0.186 0.23,-0.302 0.37,-0.345 0.14,-0.044 0.3,-0.015 0.47,0.084 l 2.75,1.557 c 0.13,0.07 0.21,0.16 0.24,0.26 0.03,0.1 0.01,0.21 -0.06,0.34 l -0.25,0.44 0.35,0.2 1.34,-2.362 -0.35,-0.199 -0.27,0.469 c -0.05,0.104 -0.14,0.172 -0.24,0.205 -0.07,0.022 -0.15,0.004 -0.25,-0.055 z m -108.51,0.864 c 0.128,0.006 0.263,0.045 0.406,0.119 0.288,0.147 0.58,0.494 0.877,1.043 0.185,0.34 0.296,0.617 0.332,0.827 0.038,0.2 0.023,0.38 -0.045,0.52 -0.067,0.14 -0.166,0.24 -0.294,0.31 -0.219,0.12 -0.489,0.1 -0.809,-0.06 -0.32,-0.16 -0.619,-0.5 -0.897,-1.01 -0.233,-0.433 -0.331,-0.809 -0.294,-1.13 0.027,-0.241 0.147,-0.422 0.361,-0.537 0.113,-0.062 0.235,-0.088 0.363,-0.082 z m 7.166,1.365 -0.316,0.211 0.23,0.343 c 0.101,0.16 0.132,0.31 0.092,0.45 -0.039,0.14 -0.161,0.28 -0.363,0.42 l -2.662,1.76 c -0.078,0.06 -0.168,0.07 -0.268,0.03 -0.1,-0.03 -0.194,-0.11 -0.281,-0.24 l -0.262,-0.4 -0.336,0.23 1.637,2.46 0.336,-0.22 -0.334,-0.5 c -0.109,-0.17 -0.161,-0.3 -0.153,-0.4 0.009,-0.11 0.065,-0.19 0.166,-0.26 l 0.897,-0.6 c 0.324,-0.21 0.814,-0.41 1.469,-0.6 0.421,-0.12 0.797,-0.15 1.131,-0.08 0.241,0.06 0.4,0.14 0.476,0.26 0.036,0.05 0.031,0.09 -0.014,0.12 -0.015,0.01 -0.074,0.02 -0.179,0.03 -0.116,0.01 -0.224,0.05 -0.323,0.11 -0.151,0.1 -0.245,0.22 -0.283,0.36 -0.037,0.14 -0.013,0.27 0.071,0.4 0.086,0.13 0.209,0.2 0.371,0.22 0.161,0.01 0.336,-0.04 0.523,-0.16 0.231,-0.16 0.375,-0.34 0.428,-0.56 0.052,-0.22 0.008,-0.44 -0.135,-0.66 -0.211,-0.31 -0.529,-0.48 -0.957,-0.51 -0.429,-0.02 -0.971,0.07 -1.629,0.29 l 1.692,-1.13 z m 100.3,0.614 c -0.09,0.01 -0.19,0.02 -0.29,0.05 -0.39,0.1 -0.72,0.35 -0.98,0.74 -0.34,0.52 -0.44,1.11 -0.29,1.76 0.15,0.66 0.59,1.23 1.33,1.72 0.64,0.42 1.26,0.58 1.88,0.49 0.62,-0.1 1.11,-0.42 1.47,-0.97 0.5,-0.75 0.4,-1.52 -0.31,-2.31 l -0.26,0.22 c 0.49,0.67 0.58,1.25 0.26,1.73 -0.23,0.35 -0.58,0.54 -1.03,0.56 -0.46,0.02 -0.99,-0.17 -1.59,-0.57 -0.62,-0.41 -1.04,-0.87 -1.26,-1.38 -0.14,-0.36 -0.1,-0.71 0.13,-1.05 0.12,-0.19 0.26,-0.31 0.42,-0.37 0.15,-0.06 0.27,-0.05 0.36,0 0.03,0.02 0.06,0.08 0.09,0.16 0.05,0.17 0.14,0.3 0.28,0.39 0.13,0.09 0.27,0.12 0.42,0.09 0.15,-0.03 0.26,-0.1 0.35,-0.23 0.09,-0.13 0.1,-0.28 0.06,-0.44 -0.05,-0.17 -0.15,-0.31 -0.32,-0.42 -0.21,-0.14 -0.45,-0.2 -0.72,-0.17 z m -5.49,1.95 -0.23,0.29 0.24,0.79 c -0.4,0.06 -0.74,0.17 -1.01,0.32 -0.27,0.14 -0.51,0.34 -0.71,0.58 -0.41,0.51 -0.58,1.07 -0.5,1.68 0.08,0.61 0.39,1.13 0.93,1.57 0.51,0.42 1.05,0.58 1.6,0.49 0.39,-0.08 0.93,-0.37 1.61,-0.88 0.62,-0.47 1.06,-0.77 1.33,-0.89 0.26,-0.11 0.51,-0.16 0.73,-0.13 0.22,0.03 0.43,0.12 0.63,0.28 0.35,0.28 0.54,0.64 0.58,1.09 0.05,0.44 -0.09,0.86 -0.41,1.25 -0.39,0.48 -0.93,0.76 -1.62,0.83 -0.7,0.08 -1.42,-0.1 -2.16,-0.52 l -0.23,0.29 2.38,1.93 0.23,-0.28 -0.21,-0.91 c 0.77,-0.12 1.4,-0.47 1.89,-1.07 0.46,-0.57 0.65,-1.17 0.57,-1.82 -0.08,-0.65 -0.39,-1.2 -0.95,-1.65 -0.31,-0.26 -0.63,-0.41 -0.97,-0.47 -0.33,-0.06 -0.68,-0.02 -1.05,0.12 -0.36,0.14 -0.88,0.47 -1.56,1 -0.48,0.38 -0.84,0.61 -1.07,0.71 -0.23,0.09 -0.45,0.11 -0.67,0.08 -0.21,-0.04 -0.42,-0.14 -0.62,-0.3 -0.31,-0.25 -0.49,-0.58 -0.53,-0.98 -0.04,-0.4 0.08,-0.77 0.36,-1.12 0.34,-0.42 0.8,-0.66 1.38,-0.72 0.57,-0.06 1.27,0.1 2.09,0.5 l 0.21,-0.26 z m -89.343,0.41 c -0.168,-0.02 -0.312,0.02 -0.44,0.12 -0.127,0.1 -0.205,0.23 -0.23,0.39 -0.026,0.16 0.01,0.31 0.105,0.43 0.095,0.12 0.224,0.19 0.385,0.21 0.161,0.02 0.306,-0.02 0.434,-0.12 0.13,-0.1 0.207,-0.23 0.232,-0.4 0.026,-0.17 -0.007,-0.31 -0.099,-0.43 -0.092,-0.12 -0.221,-0.19 -0.387,-0.2 z m -2.793,0.98 -0.318,0.24 0.238,0.31 c 0.131,0.17 0.189,0.33 0.174,0.48 -0.014,0.15 -0.099,0.28 -0.258,0.4 l -2.506,1.93 c -0.116,0.09 -0.226,0.13 -0.328,0.12 -0.104,-0.01 -0.201,-0.07 -0.291,-0.19 l -0.309,-0.4 -0.318,0.25 1.654,2.15 0.319,-0.25 -0.329,-0.43 c -0.072,-0.09 -0.105,-0.19 -0.095,-0.3 0.006,-0.07 0.056,-0.14 0.148,-0.21 l 3.422,-2.63 z m 2.176,3.69 c -0.672,-0.02 -1.338,0.26 -2,0.85 -0.572,0.5 -0.89,1.07 -0.955,1.69 -0.067,0.62 0.118,1.18 0.558,1.67 0.599,0.68 1.37,0.77 2.313,0.29 l -0.145,-0.31 c -0.775,0.31 -1.353,0.24 -1.738,-0.19 -0.279,-0.31 -0.372,-0.69 -0.275,-1.14 0.096,-0.45 0.412,-0.91 0.949,-1.39 0.562,-0.5 1.116,-0.78 1.664,-0.86 0.379,-0.05 0.705,0.08 0.98,0.39 0.151,0.17 0.235,0.33 0.25,0.5 0.014,0.16 -0.018,0.28 -0.095,0.34 -0.029,0.03 -0.087,0.05 -0.174,0.05 -0.183,0.01 -0.332,0.07 -0.45,0.17 -0.116,0.1 -0.182,0.23 -0.195,0.38 -0.012,0.15 0.032,0.29 0.133,0.4 0.102,0.12 0.242,0.18 0.414,0.17 0.174,0 0.336,-0.06 0.484,-0.2 0.249,-0.22 0.372,-0.53 0.373,-0.94 0,-0.41 -0.154,-0.79 -0.464,-1.14 -0.415,-0.46 -0.957,-0.71 -1.627,-0.73 z m 83.5,2.16 -1.34,1.31 0.27,0.3 0.26,-0.23 c 0.17,-0.16 0.33,-0.24 0.47,-0.24 0.14,-0.01 0.26,0.04 0.36,0.16 l 1.87,2.12 c -0.35,-0.13 -0.67,-0.17 -0.95,-0.13 -0.29,0.04 -0.55,0.16 -0.78,0.36 -0.37,0.33 -0.57,0.77 -0.6,1.33 -0.03,0.7 0.24,1.37 0.8,2.01 0.52,0.59 1.08,0.93 1.69,1.04 0.6,0.1 1.1,-0.02 1.51,-0.38 0.24,-0.21 0.4,-0.48 0.47,-0.79 0.07,-0.31 0.06,-0.66 -0.03,-1.06 l 0.77,0.68 1.21,-1.07 -0.26,-0.3 -0.25,0.21 c -0.14,0.13 -0.29,0.19 -0.44,0.16 -0.15,-0.02 -0.31,-0.13 -0.49,-0.33 z m -80.444,0.43 -0.256,0.27 c 0.225,0.22 0.351,0.39 0.377,0.51 0.038,0.18 -0.009,0.33 -0.14,0.47 l -1.488,1.6 c -0.49,0.52 -0.729,0.99 -0.719,1.41 0.006,0.42 0.166,0.78 0.48,1.08 0.215,0.2 0.488,0.33 0.821,0.39 0.332,0.07 0.723,0.07 1.173,0.01 l -0.599,0.79 1.197,1.07 0.246,-0.27 -0.221,-0.2 c -0.133,-0.13 -0.202,-0.26 -0.207,-0.41 -0.005,-0.14 0.056,-0.28 0.186,-0.42 l 2.81,-3.01 -1.285,-1.07 -0.256,0.27 c 0.235,0.23 0.365,0.43 0.385,0.57 0.021,0.15 -0.027,0.29 -0.144,0.42 l -1.282,1.37 c -0.331,0.35 -0.706,0.56 -1.121,0.61 -0.415,0.06 -0.759,-0.04 -1.037,-0.3 -0.225,-0.21 -0.334,-0.46 -0.324,-0.76 0.009,-0.29 0.151,-0.59 0.43,-0.89 l 2.271,-2.43 z m 6.559,2.04 -0.248,0.32 0.336,0.26 c 0.144,0.12 0.228,0.26 0.256,0.43 0.021,0.12 -0.022,0.25 -0.133,0.39 l -3.781,4.79 c -0.089,0.11 -0.189,0.18 -0.297,0.19 -0.109,0.02 -0.223,-0.03 -0.346,-0.12 l -0.375,-0.3 -0.25,0.31 2.121,1.68 0.25,-0.32 -0.396,-0.31 c -0.095,-0.07 -0.156,-0.17 -0.178,-0.27 -0.011,-0.08 0.015,-0.16 0.076,-0.24 l 4.504,-5.71 z m 75.165,1.17 c 0.1,0.01 0.2,0.02 0.3,0.04 0.47,0.11 0.93,0.42 1.37,0.92 0.48,0.54 0.74,1.04 0.79,1.49 0.05,0.45 -0.06,0.81 -0.34,1.05 -0.26,0.23 -0.58,0.29 -0.97,0.19 -0.38,-0.11 -0.85,-0.47 -1.39,-1.08 -0.5,-0.56 -0.77,-1.04 -0.82,-1.42 -0.05,-0.38 0.06,-0.69 0.34,-0.93 0.2,-0.18 0.44,-0.27 0.72,-0.26 z m -71.962,2.33 c -0.424,0.58 -0.871,0.94 -1.336,1.1 -0.312,0.11 -0.644,0.08 -0.994,-0.07 l -0.213,0.31 0.686,0.46 -1.911,2.78 c -0.208,0.3 -0.285,0.61 -0.23,0.92 0.055,0.32 0.243,0.59 0.568,0.81 0.352,0.24 0.731,0.3 1.135,0.19 0.404,-0.11 0.802,-0.44 1.197,-0.98 l -0.281,-0.19 c -0.316,0.41 -0.603,0.66 -0.865,0.75 -0.261,0.1 -0.488,0.08 -0.678,-0.05 -0.159,-0.11 -0.249,-0.27 -0.267,-0.46 -0.02,-0.19 0.049,-0.4 0.207,-0.63 l 1.824,-2.65 1.269,0.87 0.28,-0.41 -1.27,-0.87 1.16,-1.69 z m 67.992,0.5 c -0.42,0 -0.82,0.13 -1.19,0.4 -0.51,0.37 -0.79,0.89 -0.84,1.54 -0.05,0.66 0.16,1.32 0.64,1.98 0.44,0.61 0.98,0.99 1.62,1.12 0.64,0.14 1.22,0.02 1.73,-0.35 0.76,-0.55 1.04,-1.38 0.85,-2.5 l -0.36,0.08 c 0.14,0.88 -0.06,1.52 -0.59,1.91 -0.37,0.26 -0.77,0.33 -1.22,0.22 -0.39,-0.1 -0.81,-0.46 -1.28,-1.07 l 2.77,-2 c -0.3,-0.4 -0.6,-0.7 -0.89,-0.9 -0.41,-0.28 -0.82,-0.42 -1.24,-0.43 z m -6.228,0.43 c -0.073,0 -0.142,0.03 -0.207,0.07 -0.128,0.08 -0.209,0.2 -0.243,0.36 -0.034,0.17 -0.01,0.32 0.075,0.45 0.083,0.14 0.206,0.23 0.365,0.27 0.16,0.04 0.307,0.02 0.439,-0.06 0.133,-0.08 0.216,-0.2 0.248,-0.36 0.034,-0.16 0.009,-0.31 -0.076,-0.44 -0.086,-0.14 -0.208,-0.23 -0.371,-0.28 -0.08,-0.02 -0.157,-0.02 -0.23,-0.01 z m 5.658,0.05 c 0.15,-0.02 0.31,-0.01 0.48,0.03 0.35,0.09 0.65,0.29 0.88,0.6 0.12,0.18 0.18,0.32 0.18,0.43 -0.01,0.11 -0.06,0.2 -0.16,0.27 l -1.67,1.21 c -0.38,-0.54 -0.57,-1.02 -0.57,-1.43 0.01,-0.41 0.15,-0.72 0.44,-0.93 0.13,-0.09 0.26,-0.15 0.42,-0.18 z m -8.242,1.4 -1.619,0.98 0.191,0.35 0.375,-0.2 c 0.161,-0.09 0.325,-0.11 0.49,-0.07 0.12,0.03 0.22,0.12 0.305,0.28 l 2.892,5.38 c 0.068,0.13 0.087,0.24 0.057,0.34 -0.03,0.11 -0.112,0.2 -0.25,0.27 l -0.422,0.23 0.19,0.35 2.383,-1.28 -0.19,-0.35 -0.45,0.24 c -0.1,0.06 -0.21,0.07 -0.32,0.05 -0.08,-0.02 -0.14,-0.07 -0.19,-0.16 z m 4.412,0.81 -1.588,1.05 0.211,0.34 0.337,-0.2 c 0.18,-0.11 0.34,-0.16 0.49,-0.13 0.14,0.03 0.27,0.13 0.37,0.3 l 1.66,2.69 c 0.08,0.13 0.11,0.24 0.09,0.34 -0.02,0.1 -0.09,0.19 -0.22,0.27 l -0.43,0.27 0.21,0.34 2.31,-1.43 -0.21,-0.34 -0.46,0.29 c -0.1,0.06 -0.2,0.08 -0.31,0.06 -0.07,-0.02 -0.14,-0.07 -0.2,-0.17 z m -62.442,0.11 -0.183,0.33 c 0.272,0.16 0.436,0.3 0.49,0.41 0.078,0.16 0.07,0.32 -0.025,0.49 l -1.069,1.9 c -0.352,0.63 -0.474,1.14 -0.365,1.55 0.105,0.4 0.346,0.71 0.721,0.92 0.257,0.15 0.556,0.21 0.894,0.2 0.338,-0.01 0.718,-0.11 1.139,-0.27 l -0.395,0.9 1.416,0.76 0.176,-0.32 -0.263,-0.14 c -0.159,-0.09 -0.259,-0.21 -0.297,-0.35 -0.039,-0.13 -0.011,-0.29 0.082,-0.45 l 2.017,-3.59 -1.502,-0.74 -0.185,0.33 c 0.285,0.17 0.455,0.32 0.512,0.46 0.055,0.14 0.042,0.29 -0.043,0.44 l -0.922,1.63 c -0.238,0.43 -0.554,0.72 -0.944,0.87 -0.39,0.15 -0.75,0.13 -1.08,-0.05 -0.268,-0.16 -0.433,-0.37 -0.494,-0.66 -0.06,-0.29 0.009,-0.61 0.209,-0.97 l 1.629,-2.9 z m 5.598,3.07 -0.152,0.35 0.381,0.17 c 0.167,0.08 0.271,0.18 0.316,0.33 0.044,0.14 0.017,0.32 -0.08,0.54 l -1.299,2.92 c -0.037,0.09 -0.106,0.15 -0.207,0.17 -0.101,0.03 -0.226,0.01 -0.371,-0.05 l -0.432,-0.2 -0.164,0.37 2.707,1.21 0.162,-0.37 -0.552,-0.25 c -0.179,-0.08 -0.295,-0.16 -0.342,-0.25 -0.049,-0.1 -0.048,-0.2 0.002,-0.31 l 0.435,-0.98 c 0.158,-0.36 0.462,-0.79 0.912,-1.3 0.292,-0.33 0.597,-0.56 0.917,-0.68 0.231,-0.08 0.409,-0.09 0.537,-0.04 0.057,0.03 0.076,0.07 0.054,0.11 -0.007,0.02 -0.051,0.06 -0.136,0.12 -0.092,0.08 -0.162,0.17 -0.209,0.28 -0.074,0.16 -0.092,0.31 -0.049,0.45 0.041,0.13 0.133,0.23 0.271,0.3 0.143,0.06 0.288,0.05 0.434,-0.02 0.145,-0.07 0.262,-0.21 0.353,-0.41 0.114,-0.26 0.133,-0.49 0.061,-0.71 -0.074,-0.21 -0.229,-0.37 -0.465,-0.48 -0.347,-0.15 -0.709,-0.12 -1.084,0.09 -0.375,0.2 -0.78,0.57 -1.219,1.11 l 0.823,-1.85 z m 50.098,0.53 c -0.164,0.02 -0.32,0.06 -0.469,0.12 -0.28,0.13 -0.503,0.31 -0.672,0.57 -0.171,0.25 -0.285,0.6 -0.342,1.06 -0.151,-0.32 -0.336,-0.63 -0.554,-0.94 l -1.377,0.7 0.144,0.33 c 0.311,-0.13 0.54,-0.16 0.684,-0.12 0.144,0.05 0.264,0.19 0.361,0.41 l 2.117,4.84 c 0.044,0.11 0.042,0.2 -0.006,0.3 -0.047,0.09 -0.146,0.17 -0.294,0.24 l -0.321,0.14 0.153,0.35 2.334,-1.02 -0.151,-0.35 -0.322,0.14 c -0.149,0.06 -0.284,0.08 -0.402,0.03 -0.092,-0.03 -0.166,-0.11 -0.229,-0.26 l -0.814,-1.86 c 0.297,0.22 0.589,0.35 0.873,0.4 0.285,0.05 0.563,0.02 0.836,-0.1 0.48,-0.21 0.806,-0.59 0.978,-1.13 0.21,-0.65 0.15,-1.35 -0.178,-2.1 -0.203,-0.47 -0.472,-0.85 -0.804,-1.15 -0.333,-0.3 -0.677,-0.49 -1.034,-0.56 -0.178,-0.04 -0.348,-0.05 -0.511,-0.04 z m -0.002,0.59 c 0.164,0.02 0.33,0.08 0.5,0.19 0.337,0.21 0.663,0.67 0.974,1.39 0.298,0.68 0.41,1.24 0.338,1.7 -0.06,0.34 -0.253,0.59 -0.582,0.73 -0.351,0.15 -0.708,0.12 -1.072,-0.09 -0.364,-0.22 -0.689,-0.65 -0.977,-1.31 -0.283,-0.65 -0.384,-1.2 -0.3,-1.65 0.085,-0.44 0.294,-0.74 0.632,-0.89 0.16,-0.07 0.323,-0.09 0.487,-0.07 z m -13.424,0.58 -0.334,0.06 -1.211,7.09 c -0.067,0.39 -0.172,0.67 -0.312,0.84 -0.142,0.16 -0.355,0.27 -0.641,0.33 l 0.078,0.39 2.676,-0.52 -0.078,-0.4 -0.25,0.05 c -0.289,0.06 -0.521,0.04 -0.698,-0.05 -0.175,-0.1 -0.28,-0.23 -0.314,-0.4 -0.029,-0.15 -0.024,-0.35 0.018,-0.62 l 0.156,-1.02 2.92,-0.57 0.937,1.53 c 0.036,0.06 0.06,0.12 0.073,0.18 0.018,0.1 -0.009,0.18 -0.086,0.25 -0.113,0.1 -0.322,0.17 -0.629,0.23 l -0.235,0.05 0.078,0.39 2.946,-0.58 -0.078,-0.39 -0.231,0.05 c -0.329,0.06 -0.574,-0.04 -0.736,-0.31 z m -30.906,0.74 c -0.291,0.04 -0.579,0.14 -0.864,0.3 -0.568,0.34 -0.987,0.89 -1.252,1.66 -0.246,0.72 -0.242,1.37 0.012,1.98 0.254,0.6 0.683,1 1.285,1.21 0.885,0.3 1.728,0.06 2.526,-0.74 l -0.264,-0.25 c -0.64,0.62 -1.275,0.82 -1.904,0.61 -0.426,-0.15 -0.72,-0.44 -0.881,-0.87 -0.138,-0.38 -0.09,-0.93 0.142,-1.66 l 3.227,1.11 c 0.156,-0.47 0.233,-0.88 0.227,-1.23 -0.008,-0.5 -0.129,-0.92 -0.366,-1.27 -0.235,-0.34 -0.571,-0.59 -1.007,-0.74 -0.297,-0.1 -0.591,-0.14 -0.881,-0.11 z m 38.767,0.31 c -0.164,0 -0.323,0.02 -0.478,0.07 -0.29,0.09 -0.532,0.26 -0.729,0.49 -0.193,0.24 -0.344,0.58 -0.447,1.02 -0.119,-0.32 -0.27,-0.65 -0.455,-0.99 l -1.441,0.56 0.109,0.34 c 0.324,-0.09 0.554,-0.11 0.691,-0.05 0.138,0.07 0.244,0.22 0.319,0.45 l 1.607,5.03 c 0.034,0.11 0.022,0.2 -0.035,0.29 -0.056,0.09 -0.161,0.16 -0.316,0.21 l -0.336,0.11 0.117,0.36 2.427,-0.77 -0.115,-0.37 -0.336,0.11 c -0.155,0.05 -0.288,0.05 -0.402,-0.01 -0.088,-0.04 -0.154,-0.13 -0.201,-0.28 l -0.619,-1.93 c 0.273,0.24 0.548,0.41 0.826,0.49 0.279,0.08 0.56,0.07 0.844,-0.02 0.498,-0.16 0.862,-0.5 1.089,-1.02 0.275,-0.63 0.288,-1.33 0.04,-2.11 -0.156,-0.49 -0.384,-0.9 -0.684,-1.23 -0.3,-0.33 -0.623,-0.55 -0.969,-0.66 -0.174,-0.06 -0.342,-0.09 -0.506,-0.09 z m -15.244,0.03 -1.859,0.14 0.012,0.4 0.339,-0.01 c 0.234,0 0.409,0.03 0.522,0.12 0.114,0.08 0.172,0.2 0.176,0.35 l 0.086,2.83 c -0.19,-0.32 -0.409,-0.55 -0.655,-0.71 -0.247,-0.15 -0.525,-0.22 -0.83,-0.21 -0.499,0.01 -0.933,0.22 -1.305,0.63 -0.472,0.52 -0.696,1.21 -0.669,2.06 0.023,0.78 0.233,1.41 0.628,1.88 0.397,0.46 0.866,0.69 1.409,0.67 0.321,-0.01 0.609,-0.11 0.863,-0.3 0.254,-0.19 0.472,-0.47 0.654,-0.84 l 0.153,1.02 1.629,-0.05 -0.014,-0.4 -0.33,0.01 c -0.194,0 -0.34,-0.05 -0.44,-0.16 -0.1,-0.12 -0.154,-0.3 -0.162,-0.57 z m -22.988,0.02 c 0.084,0.01 0.166,0.03 0.25,0.06 0.297,0.1 0.512,0.32 0.642,0.65 0.13,0.34 0.131,0.69 0.002,1.06 -0.067,0.2 -0.147,0.33 -0.24,0.39 -0.092,0.06 -0.196,0.07 -0.312,0.03 l -1.953,-0.67 c 0.226,-0.62 0.508,-1.05 0.849,-1.29 0.255,-0.17 0.51,-0.25 0.762,-0.23 z m 30.187,0.49 1.961,3.21 -2.605,0.51 z m 7.739,0.02 c 0.245,-0.01 0.487,0.07 0.722,0.26 0.315,0.25 0.589,0.74 0.826,1.48 0.227,0.71 0.281,1.29 0.163,1.73 -0.095,0.34 -0.314,0.56 -0.657,0.67 -0.363,0.11 -0.714,0.05 -1.054,-0.21 -0.339,-0.25 -0.619,-0.71 -0.838,-1.4 -0.216,-0.67 -0.26,-1.23 -0.131,-1.66 0.13,-0.44 0.371,-0.71 0.723,-0.82 0.083,-0.03 0.164,-0.05 0.246,-0.05 z m -29.459,1.41 c -0.42,-0.02 -0.788,0.06 -1.106,0.22 -0.424,0.23 -0.666,0.51 -0.728,0.86 -0.034,0.19 -0.006,0.35 0.086,0.49 0.09,0.14 0.219,0.22 0.386,0.25 0.157,0.03 0.292,0 0.407,-0.08 0.113,-0.08 0.187,-0.2 0.214,-0.36 0.02,-0.11 -0.005,-0.24 -0.078,-0.4 -0.058,-0.13 -0.086,-0.22 -0.076,-0.27 0.016,-0.09 0.108,-0.17 0.276,-0.24 0.232,-0.09 0.495,-0.11 0.785,-0.06 0.313,0.06 0.556,0.2 0.726,0.43 0.169,0.22 0.229,0.47 0.182,0.74 l -0.133,0.75 c -0.971,-0.06 -1.774,0.03 -2.408,0.26 -0.634,0.24 -0.997,0.62 -1.088,1.13 -0.061,0.34 0.015,0.64 0.227,0.91 0.211,0.26 0.557,0.43 1.039,0.52 0.337,0.06 0.635,0.05 0.896,-0.02 0.261,-0.08 0.583,-0.26 0.963,-0.56 0.059,0.35 0.154,0.6 0.285,0.76 0.133,0.16 0.313,0.26 0.539,0.3 0.298,0.05 0.592,-0.03 0.883,-0.25 l -0.127,-0.33 c -0.164,0.09 -0.311,0.12 -0.441,0.09 -0.117,-0.02 -0.202,-0.09 -0.254,-0.22 -0.054,-0.13 -0.06,-0.31 -0.018,-0.55 l 0.483,-2.7 c 0.065,-0.36 -0.025,-0.7 -0.274,-1.01 -0.249,-0.3 -0.651,-0.51 -1.209,-0.61 -0.151,-0.02 -0.297,-0.04 -0.437,-0.05 z m 3.695,0.77 -0.025,0.34 0.244,0.02 c 0.206,0.01 0.359,0.08 0.461,0.2 0.102,0.12 0.146,0.29 0.131,0.5 l -0.239,3.23 c -0.007,0.11 -0.057,0.19 -0.148,0.26 -0.091,0.06 -0.221,0.09 -0.387,0.08 l -0.33,-0.03 -0.027,0.4 2.517,0.19 0.028,-0.4 -0.33,-0.03 c -0.183,-0.01 -0.312,-0.06 -0.385,-0.14 -0.074,-0.08 -0.104,-0.21 -0.09,-0.39 l 0.135,-1.86 c 0.038,-0.52 0.197,-0.93 0.476,-1.24 0.279,-0.3 0.61,-0.44 0.992,-0.41 0.385,0.03 0.662,0.21 0.829,0.54 0.118,0.23 0.161,0.58 0.127,1.05 l -0.157,2.14 c -0.011,0.15 -0.064,0.26 -0.158,0.33 -0.092,0.07 -0.251,0.09 -0.475,0.08 l -0.238,-0.02 -0.029,0.4 2.506,0.19 0.029,-0.41 -0.334,-0.02 c -0.182,-0.01 -0.31,-0.06 -0.383,-0.14 -0.072,-0.08 -0.1,-0.22 -0.088,-0.4 l 0.178,-2.43 c 0.026,-0.35 -0.015,-0.67 -0.123,-0.96 -0.109,-0.29 -0.263,-0.51 -0.467,-0.66 -0.204,-0.14 -0.462,-0.23 -0.777,-0.25 -0.365,-0.03 -0.7,0.04 -1.002,0.2 -0.303,0.16 -0.574,0.41 -0.813,0.76 0,-0.42 -0.021,-0.79 -0.062,-1.11 z m 8.768,0.64 c 0.36,-0.01 0.666,0.15 0.921,0.48 0.293,0.38 0.449,0.91 0.469,1.59 0.023,0.72 -0.092,1.27 -0.344,1.65 -0.251,0.38 -0.561,0.58 -0.929,0.59 -0.346,0.01 -0.634,-0.15 -0.865,-0.48 -0.23,-0.32 -0.358,-0.9 -0.383,-1.71 -0.023,-0.76 0.067,-1.3 0.273,-1.62 0.206,-0.32 0.491,-0.49 0.858,-0.5 z m -11.584,1.26 -0.127,0.71 c -0.085,0.48 -0.3,0.84 -0.645,1.11 -0.345,0.26 -0.714,0.35 -1.107,0.28 -0.222,-0.04 -0.388,-0.14 -0.496,-0.32 -0.11,-0.18 -0.14,-0.4 -0.092,-0.67 0.069,-0.39 0.255,-0.66 0.556,-0.83 0.404,-0.21 1.041,-0.3 1.911,-0.28 z"
     transform="matrix(0.8,0,0,-0.8,393.84,713.6)"
     id="path1-3" /></g></svg>
